# This file is brought to you by Roblox Corporation
# Generated by Roblox Studio

mtllib doors door sign.mtl

g Sign1

v 1.15528 0.163617 -0.126446 
v 1.15528 -0.163617 1.89635e-07 
v 1.15528 -0.163617 -0.126446 
v 1.15528 0.163617 1.91794e-07 
v 1.15528 0.163617 1.91794e-07 
v 1.15528 -0.163617 0.126446 
v 1.15528 -0.163617 1.89635e-07 
v 1.15528 0.163617 0.126446 
v 1.15528 0.163617 -0.126446 
v 1.02015 0.41619 -0.126446 
v 1.15528 0.163617 1.91794e-07 
v 1.02015 0.41619 1.93461e-07 
v -1.02015 0.41619 1.93461e-07 
v 1.02015 0.41619 1.93461e-07 
v 1.15528 0.163617 0.126446 
v 1.15528 0.163617 1.91794e-07 
v 1.02015 0.41619 0.126446 
v -1.02015 -0.41619 1.87968e-07 
v 1.15528 -0.163617 -0.126446 
v 1.02015 -0.41619 1.87968e-07 
v 1.02015 -0.41619 -0.126446 
v 1.15528 -0.163617 1.89635e-07 
v 1.15528 -0.163617 1.89635e-07 
v 1.02015 -0.41619 0.126446 
v 1.02015 -0.41619 1.87968e-07 
v 1.15528 -0.163617 0.126446 
v 1.15528 0.163617 -0.126446 
v 1.10411 -0.150888 -0.154512 
v 1.10411 0.150888 -0.154512 
v 1.15528 -0.163617 -0.126446 
v 1.15528 -0.163617 0.126446 
v 1.10411 0.150887 0.154512 
v 1.10411 -0.150888 0.154512 
v 1.15528 0.163617 0.126446 
v 0.754423 0.573865 -0.126446 
v 0.898317 -0.00897283 -0.142786 
v 0.857286 -0.042802 -0.164199 
v 0.871357 -0.00897283 -0.164199 
v 0.876349 -0.0617861 -0.142786 
v 0.898317 -0.00897283 0.142786 
v 0.857286 -0.042802 0.164199 
v 0.876349 -0.0617861 0.142786 
v 0.871357 -0.00897283 0.164199 
v -0.857286 0.0248563 -0.164199 
v 0.857286 0.0248563 -0.164199 
v 0.898317 -0.00897283 -0.142786 
v 0.871357 -0.00897283 -0.164199 
v 0.876349 0.0438404 -0.142786 
v -0.857286 0.0248563 0.164199 
v 0.876349 0.0438404 0.142786 
v 0.857286 0.0248563 0.164199 
v 0.898317 -0.00897283 0.142786 
v 0.871357 -0.00897283 0.164199 
v 0.898317 -0.00897283 -0.142786 
v 0.898317 -0.00897283 9.9137e-09 
v 0.876349 -0.0617861 -0.142786 
v 0.876349 -0.0617861 1.11395e-08 
v 0.876349 -0.0617861 0.142786 
v 0.876349 -0.0617861 1.11395e-08 
v 0.898317 -0.00897283 9.9137e-09 
v 0.898317 -0.00897283 0.142786 
v -0.876349 0.0438404 8.68789e-09 
v 0.876349 0.0438404 -0.142786 
v 0.876349 0.0438404 8.68789e-09 
v 0.898317 -0.00897283 -0.142786 
v 0.898317 -0.00897283 9.9137e-09 
v 0.898317 -0.00897283 0.142786 
v 0.898317 -0.00897283 9.9137e-09 
v 0.876349 0.0438404 8.68789e-09 
v 0.876349 0.0438404 0.142786 
v -0.823316 -0.0836619 -0.142786 
v 0.823316 -0.0836619 -0.142786 
v -0.823316 -0.0836619 0.142786 
v 0.823316 -0.0836619 0.142786 
v -0.823316 -0.0836619 1.16473e-08 
v 0.823316 -0.0836619 1.16473e-08 
v 0.944796 -0.344655 0.154512 
v -0.944796 0.344654 0.154512 
v 0.944796 0.344654 0.154512 
v -0.944796 -0.344655 0.154512 
v -0.789345 -0.042802 -0.164199 
v -0.775275 -0.00897283 -0.164199 
v -0.748315 -0.00897283 -0.142786 
v -0.770282 -0.0617861 -0.142786 
v -0.770282 -0.0617861 0.142786 
v -0.748315 -0.00897283 0.142786 
v -0.789345 -0.042802 0.164199 
v -0.775275 -0.00897283 0.164199 
v -0.789345 0.0248563 -0.164199 
v -0.748315 -0.00897283 -0.142786 
v -0.775275 -0.00897283 -0.164199 
v -0.770282 0.0438404 -0.142786 
v -0.789345 0.0248563 0.164199 
v -0.748315 -0.00897283 0.142786 
v -0.770282 0.0438404 0.142786 
v -0.775275 -0.00897283 0.164199 
v -0.748315 -0.00897283 -0.142786 
v -0.770282 -0.0617861 1.11395e-08 
v -0.770282 -0.0617861 -0.142786 
v -0.748315 -0.00897283 9.9137e-09 
v -0.748315 -0.00897283 9.9137e-09 
v -0.748315 -0.00897283 0.142786 
v -0.770282 -0.0617861 1.11395e-08 
v -0.770282 -0.0617861 0.142786 
v -0.770282 0.0438404 -0.142786 
v -0.748315 -0.00897283 9.9137e-09 
v -0.748315 -0.00897283 -0.142786 
v -0.770282 0.0438404 8.68789e-09 
v -0.770282 0.0438404 8.68789e-09 
v -0.770282 0.0438404 0.142786 
v -0.748315 -0.00897283 9.9137e-09 
v -0.748315 -0.00897283 0.142786 
v -0.976133 -0.124602 -0.152393 
v -0.861187 -0.290971 -0.127016 
v -0.874166 -0.30968 -0.152393 
v -0.956316 -0.118303 -0.127016 
v -0.976133 0.1246 -0.152393 
v -0.874166 0.309678 -0.152393 
v -0.861187 0.29097 -0.127016 
v -0.956316 0.118302 -0.127016 
v -0.976133 -0.124602 -0.152393 
v -0.976133 0.1246 -0.152393 
v -0.956316 0.118302 -0.127016 
v -0.956316 -0.118303 -0.127016 
v -1.055 -0.138673 0.154512 
v -0.930768 -0.323834 0.124898 
v -1.03358 -0.131664 0.124898 
v -0.944796 -0.344655 0.154512 
v -0.944796 0.344654 0.154512 
v -1.055 0.138673 0.154512 
v -0.930768 0.323832 0.124898 
v -1.03358 0.131663 0.124898 
v -1.055 0.138673 0.154512 
v -1.055 -0.138673 0.154512 
v -1.03358 0.131663 0.124898 
v -1.03358 -0.131664 0.124898 
v 1.02015 0.41619 -0.126446 
v 1.02015 0.41619 1.93461e-07 
v -1.02015 0.41619 -0.126446 
v -1.02015 0.41619 1.93461e-07 
v 1.02015 0.41619 0.126446 
v -1.02015 0.41619 0.126446 
v -1.02015 -0.41619 1.87968e-07 
v 1.02015 -0.41619 1.87968e-07 
v 1.02015 0.41619 -0.126446 
v 0.754423 0.573865 -0.126446 
v 1.02015 0.41619 1.93461e-07 
v 0.754423 0.573865 1.94501e-07 
v -0.754423 0.573865 -0.126446 
v -1.02015 0.41619 1.93461e-07 
v -0.754423 0.573865 1.94501e-07 
v -1.02015 0.41619 -0.126446 
v 0.754423 0.573865 1.94501e-07 
v 1.02015 0.41619 0.126446 
v 1.02015 0.41619 1.93461e-07 
v 0.754423 0.573865 0.126446 
v -1.02015 0.41619 1.93461e-07 
v -1.02015 0.41619 0.126446 
v -0.754423 0.573865 1.94501e-07 
v -0.754423 0.573865 0.126446 
v -0.857286 0.0248563 -0.164199 
v 0.857286 0.0248563 -0.164199 
v -0.857286 0.0248563 0.164199 
v 0.857286 0.0248563 0.164199 
v -0.876349 0.0438404 8.68789e-09 
v 0.876349 0.0438404 8.68789e-09 
v -0.754423 0.573865 -0.126446 
v -0.631461 0.595238 1.94642e-07 
v -0.631461 0.595238 -0.126446 
v -0.754423 0.573865 1.94501e-07 
v 0.631461 0.595238 -0.126446 
v 0.754423 0.573865 1.94501e-07 
v 0.754423 0.573865 -0.126446 
v 0.631461 0.595238 1.94642e-07 
v -0.631461 0.595238 1.94642e-07 
v -0.754423 0.573865 0.126446 
v -0.631461 0.595238 0.126446 
v -0.754423 0.573865 1.94501e-07 
v 0.754423 0.573865 1.94501e-07 
v 0.631461 0.595238 0.126446 
v 0.754423 0.573865 0.126446 
v 0.631461 0.595238 1.94642e-07 
v 0.736331 0.525274 -0.154512 
v 0.631461 0.595238 -0.126446 
v 0.754423 0.573865 -0.126446 
v 0.627028 0.544273 -0.154512 
v -0.631461 0.595238 -0.126446 
v -0.73633 0.525274 -0.154512 
v -0.754423 0.573865 -0.126446 
v -0.627028 0.544273 -0.154512 
v 0.736331 0.525274 0.154512 
v 0.631461 0.595238 0.126446 
v 0.627028 0.544273 0.154512 
v 0.754423 0.573865 0.126446 
v -0.631461 0.595238 0.126446 
v -0.73633 0.525274 0.154512 
v -0.627028 0.544273 0.154512 
v -0.754423 0.573865 0.126446 
v -0.631461 0.595238 -0.126446 
v 0.631461 0.595238 1.94642e-07 
v 0.631461 0.595238 -0.126446 
v -0.631461 0.595238 1.94642e-07 
v -0.631461 0.595238 0.126446 
v 0.631461 0.595238 1.94642e-07 
v -0.631461 0.595238 1.94642e-07 
v 0.631461 0.595238 0.126446 
v 0.631461 0.595238 -0.126446 
v -0.627028 0.544273 -0.154512 
v -0.631461 0.595238 -0.126446 
v 0.627028 0.544273 -0.154512 
v -0.627028 0.544273 0.154512 
v 0.631461 0.595238 0.126446 
v -0.631461 0.595238 0.126446 
v 0.627028 0.544273 0.154512 
v -0.857286 0.0248563 -0.164199 
v -0.823316 0.0657162 -0.142786 
v -0.823316 0.0388684 -0.164199 
v -0.876349 0.0438404 -0.142786 
v 0.823316 0.0657162 -0.142786 
v 0.857286 0.0248563 -0.164199 
v 0.823316 0.0388684 -0.164199 
v 0.876349 0.0438404 -0.142786 
v -0.857286 0.0248563 0.164199 
v -0.823316 0.0657162 0.142786 
v -0.876349 0.0438404 0.142786 
v -0.823316 0.0388684 0.164199 
v 0.823316 0.0657162 0.142786 
v 0.857286 0.0248563 0.164199 
v 0.876349 0.0438404 0.142786 
v 0.823316 0.0388684 0.164199 
v -0.876349 0.0438404 -0.142786 
v -0.823316 0.0657162 8.18013e-09 
v -0.823316 0.0657162 -0.142786 
v -0.876349 0.0438404 8.68789e-09 
v 0.823316 0.0657162 -0.142786 
v 0.823316 0.0657162 8.18013e-09 
v 0.876349 0.0438404 -0.142786 
v 0.876349 0.0438404 8.68789e-09 
v -0.876349 0.0438404 0.142786 
v -0.823316 0.0657162 8.18013e-09 
v -0.876349 0.0438404 8.68789e-09 
v -0.823316 0.0657162 0.142786 
v 0.876349 0.0438404 0.142786 
v 0.876349 0.0438404 8.68789e-09 
v 0.823316 0.0657162 8.18013e-09 
v 0.823316 0.0657162 0.142786 
v 0.944796 -0.344655 0.154512 
v -0.944796 0.344654 0.154512 
v 0.944796 0.344654 0.154512 
v -0.944796 -0.344655 0.154512 
v 0.576218 0.445103 -0.152393 
v -0.576218 -0.445104 -0.152393 
v -0.789345 0.0248563 -0.164199 
v -0.823316 0.0388684 -0.164199 
v -0.823316 0.0657162 -0.142786 
v -0.770282 0.0438404 -0.142786 
v 0.789346 0.0248563 -0.164199 
v 0.823316 0.0657162 -0.142786 
v 0.823316 0.0388684 -0.164199 
v 0.770282 0.0438404 -0.142786 
v -0.770282 0.0438404 0.142786 
v -0.823316 0.0657162 0.142786 
v -0.789345 0.0248563 0.164199 
v -0.823316 0.0388684 0.164199 
v 0.770282 0.0438404 0.142786 
v 0.789346 0.0248563 0.164199 
v 0.823316 0.0657162 0.142786 
v 0.823316 0.0388684 0.164199 
v -0.823316 0.0657162 -0.142786 
v -0.770282 0.0438404 8.68789e-09 
v -0.770282 0.0438404 -0.142786 
v -0.823316 0.0657162 8.18013e-09 
v 0.770282 0.0438404 -0.142786 
v 0.770282 0.0438404 8.68789e-09 
v 0.823316 0.0657162 -0.142786 
v 0.823316 0.0657162 8.18013e-09 
v -0.823316 0.0657162 0.142786 
v -0.770282 0.0438404 8.68789e-09 
v -0.823316 0.0657162 8.18013e-09 
v -0.770282 0.0438404 0.142786 
v 0.823316 0.0657162 0.142786 
v 0.823316 0.0657162 8.18013e-09 
v 0.770282 0.0438404 8.68789e-09 
v 0.770282 0.0438404 0.142786 
v -0.576218 -0.445104 -0.152393 
v 0.581183 -0.41916 -0.127016 
v 0.576218 -0.445104 -0.152393 
v -0.581183 -0.41916 -0.127016 
v -0.622774 -0.495374 0.154512 
v 0.622774 -0.495374 0.154512 
v -0.62814 -0.4665 0.124898 
v 0.62814 -0.4665 0.124898 
v 0.665223 -0.43008 -0.152393 
v 0.576218 -0.445104 -0.152393 
v 0.581183 -0.41916 -0.127016 
v 0.662567 -0.405423 -0.127016 
v -0.665223 -0.43008 -0.152393 
v -0.581183 -0.41916 -0.127016 
v -0.576218 -0.445104 -0.152393 
v -0.662567 -0.405423 -0.127016 
v 0.622774 -0.495374 0.154512 
v 0.718971 -0.478653 0.154512 
v 0.62814 -0.4665 0.124898 
v 0.716101 -0.451211 0.124898 
v -0.718971 -0.478653 0.154512 
v -0.62814 -0.4665 0.124898 
v -0.716101 -0.451211 0.124898 
v -0.622774 -0.495374 0.154512 
v -0.748315 -0.00897283 -0.142786 
v 0.748315 -0.00897283 -0.142786 
v -0.748315 -0.00897283 0.142786 
v 0.748315 -0.00897283 0.142786 
v 0.665223 -0.43008 -0.152393 
v 0.861187 -0.290971 -0.127016 
v 0.874166 -0.30968 -0.152393 
v 0.662567 -0.405423 -0.127016 
v -0.665223 -0.43008 -0.152393 
v -0.874166 -0.30968 -0.152393 
v -0.861187 -0.290971 -0.127016 
v -0.662567 -0.405423 -0.127016 
v 0.718971 -0.478653 0.154512 
v 0.930768 -0.323834 0.124898 
v 0.716101 -0.451211 0.124898 
v 0.944796 -0.344655 0.154512 
v -0.944796 -0.344655 0.154512 
v -0.718971 -0.478653 0.154512 
v -0.930768 -0.323834 0.124898 
v -0.716101 -0.451211 0.124898 
v 1.15528 -0.163617 1.89635e-07 
v -1.15528 -0.163617 1.89635e-07 
v 1.15528 -0.163617 0.126446 
v 1.15528 0.163617 0.126446 
v -1.15528 -0.163617 0.126446 
v -1.15528 0.163617 0.126446 
v 1.02015 0.41619 1.93461e-07 
v -1.02015 0.41619 1.93461e-07 
v 1.02015 0.41619 0.126446 
v -1.02015 0.41619 0.126446 
v -1.02015 -0.41619 1.87968e-07 
v 1.02015 -0.41619 1.87968e-07 
v -1.02015 -0.41619 0.126446 
v 1.02015 -0.41619 0.126446 
v 1.10411 -0.150888 -0.154512 
v -1.10411 -0.150888 -0.154512 
v 1.10411 -0.150888 0.154512 
v -1.10411 -0.150888 0.154512 
v -1.15528 0.163617 0.126446 
v -0.981694 0.379682 0.154512 
v -1.02015 0.41619 0.126446 
v -1.10411 0.150887 0.154512 
v 1.15528 0.163617 0.126446 
v 0.981695 0.379682 0.154512 
v 1.10411 0.150887 0.154512 
v 1.02015 0.41619 0.126446 
v 1.02015 -0.41619 0.126446 
v 1.15528 -0.163617 0.126446 
v 0.981695 -0.379683 0.154512 
v 1.10411 -0.150888 0.154512 
v -1.15528 -0.163617 0.126446 
v -0.981694 -0.379683 0.154512 
v -1.10411 -0.150888 0.154512 
v -1.02015 -0.41619 0.126446 
v 0.754423 0.573865 0.126446 
v -0.754423 0.573865 0.126446 
v -0.754423 -0.573865 0.126446 
v 0.754423 -0.573865 0.126446 
v -0.857286 -0.042802 -0.164199 
v 0.857286 -0.042802 -0.164199 
v -0.754423 0.573865 0.126446 
v -0.981694 0.379682 0.154512 
v -0.73633 0.525274 0.154512 
v -1.02015 0.41619 0.126446 
v 0.736331 0.525274 0.154512 
v 0.981695 0.379682 0.154512 
v 0.754423 0.573865 0.126446 
v 1.02015 0.41619 0.126446 
v -0.73633 -0.525275 -0.154512 
v 0.981695 -0.379683 0.154512 
v 0.754423 -0.573865 0.126446 
v 1.02015 -0.41619 0.126446 
v 0.736331 -0.525275 0.154512 
v -1.02015 -0.41619 0.126446 
v -0.754423 -0.573865 0.126446 
v -0.981694 -0.379683 0.154512 
v -0.73633 -0.525275 0.154512 
v -0.631461 0.595238 1.94642e-07 
v 0.631461 0.595238 1.94642e-07 
v 0.627028 -0.544275 -0.154512 
v -0.789345 0.0248563 0.164199 
v -0.823316 0.0388684 0.164199 
v -0.857286 0.0248563 0.164199 
v -0.775275 -0.00897283 0.164199 
v -0.871357 -0.00897283 0.164199 
v -0.823316 -0.0568141 0.164199 
v -0.789345 -0.042802 0.164199 
v -0.857286 -0.042802 0.164199 
v 0.871357 -0.00897283 0.164199 
v 0.775275 -0.00897283 0.164199 
v 0.823316 -0.0568141 0.164199 
v 0.857286 -0.042802 0.164199 
v 0.789346 -0.042802 0.164199 
v 0.857286 0.0248563 0.164199 
v 0.789346 0.0248563 0.164199 
v 0.823316 0.0388684 0.164199 
v -0.627028 0.544273 0.154512 
v -0.718971 0.478652 0.154512 
v -0.622774 0.495373 0.154512 
v -0.73633 0.525274 0.154512 
v 0.627028 0.544273 0.154512 
v 0.622775 0.495373 0.154512 
v 0.718971 0.478652 0.154512 
v 0.627028 0.544273 0.154512 
v 0.736331 0.525274 0.154512 
v -1.055 -0.138673 0.154512 
v -1.10411 0.150887 0.154512 
v -1.10411 -0.150888 0.154512 
v -1.055 0.138673 0.154512 
v 1.10411 -0.150888 0.154512 
v 1.10411 0.150887 0.154512 
v 1.055 -0.138673 0.154512 
v 1.055 0.138673 0.154512 
v -0.627028 -0.544275 0.154512 
v -0.718971 -0.478653 0.154512 
v -0.73633 -0.525275 0.154512 
v -0.622774 -0.495374 0.154512 
v -0.627028 -0.544275 0.154512 
v 0.622774 -0.495374 0.154512 
v 0.627028 -0.544275 0.154512 
v 0.718971 -0.478653 0.154512 
v 0.736331 -0.525275 0.154512 
v 0.944796 -0.344655 0.154512 
v 0.736331 -0.525275 0.154512 
v 0.981695 -0.379683 0.154512 
v 0.718971 -0.478653 0.154512 
v 0.981695 -0.379683 0.154512 
v 1.10411 -0.150888 0.154512 
v 0.944796 -0.344655 0.154512 
v 1.055 -0.138673 0.154512 
v -0.73633 0.525274 0.154512 
v -0.944796 0.344654 0.154512 
v -0.718971 0.478652 0.154512 
v -0.981694 0.379682 0.154512 
v -1.10411 0.150887 0.154512 
v -0.944796 0.344654 0.154512 
v -0.981694 0.379682 0.154512 
v -1.055 0.138673 0.154512 
v 1.10411 0.150887 0.154512 
v 0.944796 0.344654 0.154512 
v 1.055 0.138673 0.154512 
v 0.981695 0.379682 0.154512 
v -1.10411 -0.150888 0.154512 
v -0.944796 -0.344655 0.154512 
v -1.055 -0.138673 0.154512 
v -0.981694 -0.379683 0.154512 
v -0.981694 -0.379683 0.154512 
v -0.73633 -0.525275 0.154512 
v -0.944796 -0.344655 0.154512 
v -0.718971 -0.478653 0.154512 
v 0.718971 0.478652 0.154512 
v 0.944796 0.344654 0.154512 
v 0.736331 0.525274 0.154512 
v 0.981695 0.379682 0.154512 
v -1.03358 -0.131664 0.124898 
v -0.62814 0.4665 0.124898 
v -1.03358 0.131663 0.124898 
v -0.716101 0.451209 0.124898 
v -0.930768 0.323832 0.124898 
v -0.62814 -0.4665 0.124898 
v -0.716101 -0.451211 0.124898 
v -0.930768 -0.323834 0.124898 
v 0.62814 0.4665 0.124898 
v 1.03358 0.131663 0.124898 
v 0.716101 0.451209 0.124898 
v 0.930768 0.323832 0.124898 
v 1.03358 -0.131664 0.124898 
v 0.62814 -0.4665 0.124898 
v 0.716101 -0.451211 0.124898 
v 0.930768 -0.323834 0.124898 
v 0.62814 -0.4665 0.124898 
v -0.62814 0.4665 0.124898 
v -0.62814 -0.4665 0.124898 
v 0.62814 0.4665 0.124898 
v -1.15528 0.163617 -0.126446 
v -1.15528 -0.163617 -0.126446 
v -1.15528 -0.163617 1.89635e-07 
v -1.15528 0.163617 1.91794e-07 
v -1.15528 -0.163617 0.126446 
v -1.15528 0.163617 1.91794e-07 
v -1.15528 -0.163617 1.89635e-07 
v -1.15528 0.163617 0.126446 
v 1.02015 0.41619 1.93461e-07 
v -1.02015 0.41619 -0.126446 
v -1.15528 0.163617 1.91794e-07 
v -1.02015 0.41619 1.93461e-07 
v -1.15528 0.163617 -0.126446 
v -1.15528 0.163617 1.91794e-07 
v -1.15528 0.163617 0.126446 
v -1.02015 0.41619 1.93461e-07 
v -1.02015 0.41619 0.126446 
v -1.15528 -0.163617 -0.126446 
v -1.02015 -0.41619 1.87968e-07 
v -1.15528 -0.163617 1.89635e-07 
v -1.02015 -0.41619 -0.126446 
v 1.02015 -0.41619 1.87968e-07 
v -1.15528 -0.163617 1.89635e-07 
v -1.02015 -0.41619 1.87968e-07 
v -1.02015 -0.41619 0.126446 
v -1.15528 -0.163617 0.126446 
v -1.15528 0.163617 -0.126446 
v -1.10411 -0.150888 -0.154512 
v -1.15528 -0.163617 -0.126446 
v -1.10411 0.150888 -0.154512 
v -1.10411 0.150887 0.154512 
v -1.15528 -0.163617 0.126446 
v -1.10411 -0.150888 0.154512 
v -1.15528 0.163617 0.126446 
v -0.754423 0.573865 -0.126446 
v -0.857286 -0.042802 -0.164199 
v -0.898317 -0.00897283 -0.142786 
v -0.871357 -0.00897283 -0.164199 
v -0.876349 -0.0617861 -0.142786 
v -0.857286 -0.042802 0.164199 
v -0.898317 -0.00897283 0.142786 
v -0.876349 -0.0617861 0.142786 
v -0.871357 -0.00897283 0.164199 
v -0.857286 0.0248563 -0.164199 
v -0.871357 -0.00897283 -0.164199 
v -0.898317 -0.00897283 -0.142786 
v -0.876349 0.0438404 -0.142786 
v 0.857286 0.0248563 -0.164199 
v -0.876349 0.0438404 0.142786 
v -0.898317 -0.00897283 0.142786 
v -0.857286 0.0248563 0.164199 
v -0.871357 -0.00897283 0.164199 
v 0.857286 0.0248563 0.164199 
v -0.876349 -0.0617861 -0.142786 
v -0.898317 -0.00897283 9.9137e-09 
v -0.898317 -0.00897283 -0.142786 
v -0.876349 -0.0617861 1.11395e-08 
v -0.876349 -0.0617861 1.11395e-08 
v -0.876349 -0.0617861 0.142786 
v -0.898317 -0.00897283 9.9137e-09 
v -0.898317 -0.00897283 0.142786 
v -0.898317 -0.00897283 -0.142786 
v -0.876349 0.0438404 8.68789e-09 
v -0.876349 0.0438404 -0.142786 
v -0.898317 -0.00897283 9.9137e-09 
v 0.876349 0.0438404 8.68789e-09 
v -0.898317 -0.00897283 9.9137e-09 
v -0.898317 -0.00897283 0.142786 
v -0.876349 0.0438404 8.68789e-09 
v -0.876349 0.0438404 0.142786 
v -0.823316 -0.0836619 -0.142786 
v 0.823316 -0.0836619 -0.142786 
v -0.823316 -0.0836619 0.142786 
v 0.823316 -0.0836619 0.142786 
v -0.823316 -0.0836619 1.16473e-08 
v 0.823316 -0.0836619 1.16473e-08 
v 0.944796 -0.344655 0.154512 
v -0.944796 0.344654 0.154512 
v 0.944796 0.344654 0.154512 
v -0.944796 -0.344655 0.154512 
v 0.789346 -0.042802 -0.164199 
v 0.748315 -0.00897283 -0.142786 
v 0.775275 -0.00897283 -0.164199 
v 0.770282 -0.0617861 -0.142786 
v 0.770282 -0.0617861 0.142786 
v 0.789346 -0.042802 0.164199 
v 0.748315 -0.00897283 0.142786 
v 0.775275 -0.00897283 0.164199 
v 0.748315 -0.00897283 -0.142786 
v 0.789346 0.0248563 -0.164199 
v 0.775275 -0.00897283 -0.164199 
v 0.770282 0.0438404 -0.142786 
v 0.748315 -0.00897283 0.142786 
v 0.789346 0.0248563 0.164199 
v 0.770282 0.0438404 0.142786 
v 0.775275 -0.00897283 0.164199 
v 0.770282 -0.0617861 -0.142786 
v 0.770282 -0.0617861 1.11395e-08 
v 0.748315 -0.00897283 -0.142786 
v 0.748315 -0.00897283 9.9137e-09 
v 0.748315 -0.00897283 0.142786 
v 0.748315 -0.00897283 9.9137e-09 
v 0.770282 -0.0617861 1.11395e-08 
v 0.770282 -0.0617861 0.142786 
v 0.748315 -0.00897283 -0.142786 
v 0.748315 -0.00897283 9.9137e-09 
v 0.770282 0.0438404 -0.142786 
v 0.770282 0.0438404 8.68789e-09 
v 0.770282 0.0438404 0.142786 
v 0.770282 0.0438404 8.68789e-09 
v 0.748315 -0.00897283 9.9137e-09 
v 0.748315 -0.00897283 0.142786 
v 0.976133 -0.124602 -0.152393 
v 0.874166 -0.30968 -0.152393 
v 0.861187 -0.290971 -0.127016 
v 0.956316 -0.118303 -0.127016 
v 0.976133 0.1246 -0.152393 
v 0.861187 0.29097 -0.127016 
v 0.874166 0.309678 -0.152393 
v 0.956316 0.118302 -0.127016 
v 0.976133 -0.124602 -0.152393 
v 0.956316 0.118302 -0.127016 
v 0.976133 0.1246 -0.152393 
v 0.956316 -0.118303 -0.127016 
v 0.944796 -0.344655 0.154512 
v 1.055 -0.138673 0.154512 
v 0.930768 -0.323834 0.124898 
v 1.03358 -0.131664 0.124898 
v 1.055 0.138673 0.154512 
v 0.930768 0.323832 0.124898 
v 1.03358 0.131663 0.124898 
v 0.944796 0.344654 0.154512 
v 1.055 -0.138673 0.154512 
v 1.055 0.138673 0.154512 
v 1.03358 -0.131664 0.124898 
v 1.03358 0.131663 0.124898 
v 1.02015 0.41619 1.93461e-07 
v -1.02015 0.41619 1.93461e-07 
v -1.02015 -0.41619 1.87968e-07 
v -1.02015 -0.41619 -0.126446 
v 1.02015 -0.41619 1.87968e-07 
v 1.02015 -0.41619 -0.126446 
v -1.02015 -0.41619 0.126446 
v 1.02015 -0.41619 0.126446 
v -1.02015 -0.41619 -0.126446 
v -0.754423 -0.573865 1.86927e-07 
v -1.02015 -0.41619 1.87968e-07 
v -0.754423 -0.573865 -0.126446 
v 1.02015 -0.41619 -0.126446 
v 0.754423 -0.573865 1.86927e-07 
v 0.754423 -0.573865 -0.126446 
v 1.02015 -0.41619 1.87968e-07 
v -1.02015 -0.41619 1.87968e-07 
v -0.754423 -0.573865 1.86927e-07 
v -0.754423 -0.573865 0.126446 
v -1.02015 -0.41619 0.126446 
v 1.02015 -0.41619 1.87968e-07 
v 0.754423 -0.573865 0.126446 
v 0.754423 -0.573865 1.86927e-07 
v 1.02015 -0.41619 0.126446 
v -0.857286 0.0248563 -0.164199 
v 0.857286 0.0248563 -0.164199 
v -0.857286 0.0248563 0.164199 
v 0.857286 0.0248563 0.164199 
v -0.876349 0.0438404 8.68789e-09 
v 0.876349 0.0438404 8.68789e-09 
v -0.73633 -0.525275 -0.154512 
v 0.754423 -0.573865 -0.126446 
v 0.631461 -0.59524 1.86786e-07 
v 0.631461 -0.59524 -0.126446 
v 0.754423 -0.573865 1.86927e-07 
v -0.631461 -0.59524 -0.126446 
v -0.754423 -0.573865 1.86927e-07 
v -0.754423 -0.573865 -0.126446 
v -0.631461 -0.59524 1.86786e-07 
v 0.631461 -0.59524 1.86786e-07 
v 0.754423 -0.573865 0.126446 
v 0.631461 -0.59524 0.126446 
v 0.754423 -0.573865 1.86927e-07 
v -0.754423 -0.573865 1.86927e-07 
v -0.631461 -0.59524 0.126446 
v -0.754423 -0.573865 0.126446 
v -0.631461 -0.59524 1.86786e-07 
v 0.736331 -0.525275 -0.154512 
v 0.631461 -0.59524 -0.126446 
v 0.627028 -0.544275 -0.154512 
v 0.754423 -0.573865 -0.126446 
v -0.73633 -0.525275 -0.154512 
v -0.627028 -0.544275 -0.154512 
v -0.631461 -0.59524 -0.126446 
v -0.754423 -0.573865 -0.126446 
v 0.631461 -0.59524 0.126446 
v 0.736331 -0.525275 0.154512 
v 0.627028 -0.544275 0.154512 
v 0.754423 -0.573865 0.126446 
v -0.754423 -0.573865 0.126446 
v -0.631461 -0.59524 0.126446 
v -0.73633 -0.525275 0.154512 
v -0.627028 -0.544275 0.154512 
v 0.631461 -0.59524 -0.126446 
v -0.631461 -0.59524 1.86786e-07 
v -0.631461 -0.59524 -0.126446 
v 0.631461 -0.59524 1.86786e-07 
v 0.631461 -0.59524 0.126446 
v -0.631461 -0.59524 1.86786e-07 
v 0.631461 -0.59524 1.86786e-07 
v -0.631461 -0.59524 0.126446 
v 0.627028 -0.544275 -0.154512 
v -0.631461 -0.59524 -0.126446 
v -0.627028 -0.544275 -0.154512 
v 0.631461 -0.59524 -0.126446 
v 0.627028 -0.544275 0.154512 
v -0.631461 -0.59524 0.126446 
v 0.631461 -0.59524 0.126446 
v -0.627028 -0.544275 0.154512 
v -0.857286 -0.042802 -0.164199 
v -0.823316 -0.0568141 -0.164199 
v -0.823316 -0.0836619 -0.142786 
v -0.876349 -0.0617861 -0.142786 
v 0.857286 -0.042802 -0.164199 
v 0.823316 -0.0836619 -0.142786 
v 0.823316 -0.0568141 -0.164199 
v 0.876349 -0.0617861 -0.142786 
v -0.876349 -0.0617861 0.142786 
v -0.823316 -0.0836619 0.142786 
v -0.857286 -0.042802 0.164199 
v -0.823316 -0.0568141 0.164199 
v 0.876349 -0.0617861 0.142786 
v 0.857286 -0.042802 0.164199 
v 0.823316 -0.0836619 0.142786 
v 0.823316 -0.0568141 0.164199 
v -0.823316 -0.0836619 -0.142786 
v -0.876349 -0.0617861 1.11395e-08 
v -0.876349 -0.0617861 -0.142786 
v -0.823316 -0.0836619 1.16473e-08 
v 0.876349 -0.0617861 -0.142786 
v 0.876349 -0.0617861 1.11395e-08 
v 0.823316 -0.0836619 -0.142786 
v 0.823316 -0.0836619 1.16473e-08 
v -0.823316 -0.0836619 1.16473e-08 
v -0.823316 -0.0836619 0.142786 
v -0.876349 -0.0617861 1.11395e-08 
v -0.876349 -0.0617861 0.142786 
v 0.823316 -0.0836619 0.142786 
v 0.823316 -0.0836619 1.16473e-08 
v 0.876349 -0.0617861 1.11395e-08 
v 0.876349 -0.0617861 0.142786 
v 0.944796 -0.344655 0.154512 
v -0.944796 0.344654 0.154512 
v 0.944796 0.344654 0.154512 
v -0.944796 -0.344655 0.154512 
v 0.576218 0.445103 -0.152393 
v -0.576218 -0.445104 -0.152393 
v -0.789345 -0.042802 -0.164199 
v -0.823316 -0.0836619 -0.142786 
v -0.823316 -0.0568141 -0.164199 
v -0.770282 -0.0617861 -0.142786 
v 0.823316 -0.0836619 -0.142786 
v 0.789346 -0.042802 -0.164199 
v 0.823316 -0.0568141 -0.164199 
v 0.770282 -0.0617861 -0.142786 
v -0.789345 -0.042802 0.164199 
v -0.823316 -0.0836619 0.142786 
v -0.770282 -0.0617861 0.142786 
v -0.823316 -0.0568141 0.164199 
v 0.823316 -0.0836619 0.142786 
v 0.789346 -0.042802 0.164199 
v 0.770282 -0.0617861 0.142786 
v 0.823316 -0.0568141 0.164199 
v -0.770282 -0.0617861 -0.142786 
v -0.823316 -0.0836619 1.16473e-08 
v -0.823316 -0.0836619 -0.142786 
v -0.770282 -0.0617861 1.11395e-08 
v 0.823316 -0.0836619 -0.142786 
v 0.823316 -0.0836619 1.16473e-08 
v 0.770282 -0.0617861 -0.142786 
v 0.770282 -0.0617861 1.11395e-08 
v -0.770282 -0.0617861 1.11395e-08 
v -0.770282 -0.0617861 0.142786 
v -0.823316 -0.0836619 1.16473e-08 
v -0.823316 -0.0836619 0.142786 
v 0.770282 -0.0617861 0.142786 
v 0.770282 -0.0617861 1.11395e-08 
v 0.823316 -0.0836619 1.16473e-08 
v 0.823316 -0.0836619 0.142786 
v 0.576218 0.445103 -0.152393 
v -0.581182 0.419159 -0.127016 
v -0.576218 0.445103 -0.152393 
v 0.581183 0.419159 -0.127016 
v 0.622775 0.495373 0.154512 
v -0.622774 0.495373 0.154512 
v 0.62814 0.4665 0.124898 
v -0.62814 0.4665 0.124898 
v 0.665223 0.430079 -0.152393 
v 0.581183 0.419159 -0.127016 
v 0.576218 0.445103 -0.152393 
v 0.662567 0.405421 -0.127016 
v -0.665223 0.430079 -0.152393 
v -0.576218 0.445103 -0.152393 
v -0.581182 0.419159 -0.127016 
v -0.662567 0.405421 -0.127016 
v 0.718971 0.478652 0.154512 
v 0.62814 0.4665 0.124898 
v 0.716101 0.451209 0.124898 
v 0.622775 0.495373 0.154512 
v -0.622774 0.495373 0.154512 
v -0.718971 0.478652 0.154512 
v -0.62814 0.4665 0.124898 
v -0.716101 0.451209 0.124898 
v -0.748315 -0.00897283 -0.142786 
v 0.748315 -0.00897283 -0.142786 
v -0.748315 -0.00897283 0.142786 
v 0.748315 -0.00897283 0.142786 
v -0.665223 0.430079 -0.152393 
v -0.861187 0.29097 -0.127016 
v -0.874166 0.309678 -0.152393 
v -0.662567 0.405421 -0.127016 
v 0.665223 0.430079 -0.152393 
v 0.874166 0.309678 -0.152393 
v 0.861187 0.29097 -0.127016 
v 0.662567 0.405421 -0.127016 
v -0.718971 0.478652 0.154512 
v -0.930768 0.323832 0.124898 
v -0.716101 0.451209 0.124898 
v -0.944796 0.344654 0.154512 
v 0.944796 0.344654 0.154512 
v 0.718971 0.478652 0.154512 
v 0.930768 0.323832 0.124898 
v 0.716101 0.451209 0.124898 
v 1.15528 0.163617 -0.126446 
v 1.15528 -0.163617 1.89635e-07 
v 1.15528 -0.163617 -0.126446 
v -1.15528 0.163617 -0.126446 
v -1.15528 -0.163617 -0.126446 
v -1.15528 -0.163617 1.89635e-07 
v 1.02015 0.41619 -0.126446 
v 1.02015 0.41619 1.93461e-07 
v -1.02015 0.41619 -0.126446 
v -1.02015 0.41619 1.93461e-07 
v -1.02015 -0.41619 1.87968e-07 
v -1.02015 -0.41619 -0.126446 
v 1.02015 -0.41619 1.87968e-07 
v 1.02015 -0.41619 -0.126446 
v 1.10411 -0.150888 -0.154512 
v 1.10411 0.150888 -0.154512 
v -1.10411 -0.150888 -0.154512 
v -1.10411 0.150888 -0.154512 
v -0.981694 0.379682 -0.154512 
v -1.10411 0.150888 -0.154512 
v -1.15528 0.163617 -0.126446 
v -1.02015 0.41619 -0.126446 
v 0.981695 0.379682 -0.154512 
v 1.15528 0.163617 -0.126446 
v 1.10411 0.150888 -0.154512 
v 1.02015 0.41619 -0.126446 
v 1.15528 -0.163617 -0.126446 
v 1.02015 -0.41619 -0.126446 
v 0.981695 -0.379683 -0.154512 
v 1.10411 -0.150888 -0.154512 
v -1.15528 -0.163617 -0.126446 
v -0.981694 -0.379683 -0.154512 
v -1.02015 -0.41619 -0.126446 
v -1.10411 -0.150888 -0.154512 
v 0.754423 0.573865 -0.126446 
v -0.754423 0.573865 -0.126446 
v -0.754423 -0.573865 -0.126446 
v 0.754423 -0.573865 -0.126446 
v -0.857286 -0.042802 -0.164199 
v 0.857286 -0.042802 -0.164199 
v -0.981694 0.379682 -0.154512 
v -0.754423 0.573865 -0.126446 
v -0.73633 0.525274 -0.154512 
v -1.02015 0.41619 -0.126446 
v 0.754423 0.573865 -0.126446 
v 1.02015 0.41619 -0.126446 
v 0.981695 0.379682 -0.154512 
v 0.736331 0.525274 -0.154512 
v 0.754423 -0.573865 -0.126446 
v 0.981695 -0.379683 -0.154512 
v 1.02015 -0.41619 -0.126446 
v 0.736331 -0.525275 -0.154512 
v -0.754423 -0.573865 -0.126446 
v -0.981694 -0.379683 -0.154512 
v -0.73633 -0.525275 -0.154512 
v -1.02015 -0.41619 -0.126446 
v -0.631461 0.595238 1.94642e-07 
v 0.631461 0.595238 1.94642e-07 
v 0.627028 -0.544275 -0.154512 
v -0.775275 -0.00897283 -0.164199 
v -0.857286 0.0248563 -0.164199 
v -0.789345 0.0248563 -0.164199 
v -0.823316 0.0388684 -0.164199 
v -0.871357 -0.00897283 -0.164199 
v -0.823316 -0.0568141 -0.164199 
v -0.789345 -0.042802 -0.164199 
v -0.857286 -0.042802 -0.164199 
v 0.775275 -0.00897283 -0.164199 
v 0.823316 -0.0568141 -0.164199 
v 0.789346 -0.042802 -0.164199 
v 0.871357 -0.00897283 -0.164199 
v 0.857286 -0.042802 -0.164199 
v 0.857286 0.0248563 -0.164199 
v 0.789346 0.0248563 -0.164199 
v 0.823316 0.0388684 -0.164199 
v -0.627028 0.544273 -0.154512 
v 0.627028 0.544273 -0.154512 
v 0.576218 0.445103 -0.152393 
v -0.576218 0.445103 -0.152393 
v -0.576218 -0.445104 -0.152393 
v 0.576218 -0.445104 -0.152393 
v 0.627028 -0.544275 -0.154512 
v -0.627028 -0.544275 -0.154512 
v -0.627028 0.544273 -0.154512 
v -0.665223 0.430079 -0.152393 
v -0.73633 0.525274 -0.154512 
v -0.576218 0.445103 -0.152393 
v 0.736331 0.525274 -0.154512 
v 0.665223 0.430079 -0.152393 
v 0.627028 0.544273 -0.154512 
v 0.576218 0.445103 -0.152393 
v -0.627028 -0.544275 -0.154512 
v -0.665223 -0.43008 -0.152393 
v -0.576218 -0.445104 -0.152393 
v -0.73633 -0.525275 -0.154512 
v 0.665223 -0.43008 -0.152393 
v 0.627028 -0.544275 -0.154512 
v 0.576218 -0.445104 -0.152393 
v 0.736331 -0.525275 -0.154512 
v 0.736331 -0.525275 -0.154512 
v 0.874166 -0.30968 -0.152393 
v 0.981695 -0.379683 -0.154512 
v 0.665223 -0.43008 -0.152393 
v -0.874166 0.309678 -0.152393 
v -0.73633 0.525274 -0.154512 
v -0.665223 0.430079 -0.152393 
v -0.981694 0.379682 -0.154512 
v -0.73633 -0.525275 -0.154512 
v -0.874166 -0.30968 -0.152393 
v -0.665223 -0.43008 -0.152393 
v -0.981694 -0.379683 -0.154512 
v 0.736331 0.525274 -0.154512 
v 0.981695 0.379682 -0.154512 
v 0.874166 0.309678 -0.152393 
v 0.665223 0.430079 -0.152393 
v 0.981695 -0.379683 -0.154512 
v 0.976133 -0.124602 -0.152393 
v 1.10411 -0.150888 -0.154512 
v 0.874166 -0.30968 -0.152393 
v -0.976133 0.1246 -0.152393 
v -0.981694 0.379682 -0.154512 
v -0.874166 0.309678 -0.152393 
v -1.10411 0.150888 -0.154512 
v 0.981695 0.379682 -0.154512 
v 0.976133 0.1246 -0.152393 
v 0.874166 0.309678 -0.152393 
v 1.10411 0.150888 -0.154512 
v -0.981694 -0.379683 -0.154512 
v -1.10411 -0.150888 -0.154512 
v -0.976133 -0.124602 -0.152393 
v -0.874166 -0.30968 -0.152393 
v -1.10411 -0.150888 -0.154512 
v -1.10411 0.150888 -0.154512 
v -0.976133 0.1246 -0.152393 
v -0.976133 -0.124602 -0.152393 
v 0.976133 0.1246 -0.152393 
v 1.10411 -0.150888 -0.154512 
v 0.976133 -0.124602 -0.152393 
v 1.10411 0.150888 -0.154512 
v -0.662567 0.405421 -0.127016 
v -0.956316 0.118302 -0.127016 
v -0.861187 0.29097 -0.127016 
v -0.581182 0.419159 -0.127016 
v -0.956316 -0.118303 -0.127016 
v -0.581183 -0.41916 -0.127016 
v -0.662567 -0.405423 -0.127016 
v -0.861187 -0.290971 -0.127016 
v 0.956316 0.118302 -0.127016 
v 0.581183 -0.41916 -0.127016 
v 0.581183 0.419159 -0.127016 
v 0.662567 0.405421 -0.127016 
v 0.861187 0.29097 -0.127016 
v 0.956316 -0.118303 -0.127016 
v 0.662567 -0.405423 -0.127016 
v 0.861187 -0.290971 -0.127016 
v -0.581182 0.419159 -0.127016 
v 0.581183 -0.41916 -0.127016 
v -0.581183 -0.41916 -0.127016 
v 0.581183 0.419159 -0.127016 

vn 1 0 0 
vn 1 0 0 
vn 1 0 0 
vn 1 0 0 
vn 1 0 0 
vn 1 0 0 
vn 1 0 0 
vn 1 0 0 
vn 0.88189 0.472441 0 
vn 0.88189 0.472441 0 
vn 0.88189 0.472441 0 
vn 0.88189 0.472441 0 
vn -0.88189 0.472441 0 
vn 0.88189 0.472441 0 
vn 0.88189 0.472441 0 
vn 0.88189 0.472441 0 
vn 0.88189 0.472441 0 
vn -0.88189 -0.472441 0 
vn 0.88189 -0.472441 0 
vn 0.88189 -0.472441 0 
vn 0.88189 -0.472441 0 
vn 0.88189 -0.472441 0 
vn 0.88189 -0.472441 0 
vn 0.88189 -0.472441 0 
vn 0.88189 -0.472441 0 
vn 0.88189 -0.472441 0 
vn 0.480315 0 -0.874016 
vn 0.480315 0 -0.874016 
vn 0.480315 0 -0.874016 
vn 0.480315 0 -0.874016 
vn 0.480315 0 0.874016 
vn 0.480315 0 0.874016 
vn 0.480315 0 0.874016 
vn 0.480315 0 0.874016 
vn 0.511811 0.858268 0 
vn 0.598425 -0.251969 -0.755906 
vn 0.598425 -0.251969 -0.755906 
vn 0.598425 -0.251969 -0.755906 
vn 0.598425 -0.251969 -0.755906 
vn 0.598425 -0.251969 0.755906 
vn 0.598425 -0.251969 0.755906 
vn 0.598425 -0.251969 0.755906 
vn 0.598425 -0.251969 0.755906 
vn -0.598425 0.251969 -0.755906 
vn 0.598425 0.251969 -0.755906 
vn 0.598425 0.251969 -0.755906 
vn 0.598425 0.251969 -0.755906 
vn 0.598425 0.251969 -0.755906 
vn -0.598425 0.251969 0.755906 
vn 0.598425 0.251969 0.755906 
vn 0.598425 0.251969 0.755906 
vn 0.598425 0.251969 0.755906 
vn 0.598425 0.251969 0.755906 
vn 0.92126 -0.385827 0 
vn 0.92126 -0.385827 0 
vn 0.92126 -0.385827 0 
vn 0.92126 -0.385827 0 
vn 0.92126 -0.385827 0 
vn 0.92126 -0.385827 0 
vn 0.92126 -0.385827 0 
vn 0.92126 -0.385827 0 
vn -0.92126 0.385827 0 
vn 0.92126 0.385827 0 
vn 0.92126 0.385827 0 
vn 0.92126 0.385827 0 
vn 0.92126 0.385827 0 
vn 0.92126 0.385827 0 
vn 0.92126 0.385827 0 
vn 0.92126 0.385827 0 
vn 0.92126 0.385827 0 
vn -0.251969 -0.606299 -0.755906 
vn 0.251969 -0.606299 -0.755906 
vn -0.251969 -0.606299 0.755906 
vn 0.251969 -0.606299 0.755906 
vn -0.377953 -0.92126 0 
vn 0.377953 -0.92126 0 
vn 0 0 1 
vn 0 0 1 
vn 0 0 1 
vn 0 0 1 
vn 0.598425 -0.251969 -0.755906 
vn 0.598425 -0.251969 -0.755906 
vn 0.598425 -0.251969 -0.755906 
vn 0.598425 -0.251969 -0.755906 
vn 0.598425 -0.251969 0.755906 
vn 0.598425 -0.251969 0.755906 
vn 0.598425 -0.251969 0.755906 
vn 0.598425 -0.251969 0.755906 
vn 0.598425 0.251969 -0.755906 
vn 0.598425 0.251969 -0.755906 
vn 0.598425 0.251969 -0.755906 
vn 0.598425 0.251969 -0.755906 
vn 0.598425 0.251969 0.755906 
vn 0.598425 0.251969 0.755906 
vn 0.598425 0.251969 0.755906 
vn 0.598425 0.251969 0.755906 
vn 0.92126 -0.385827 0 
vn 0.92126 -0.385827 0 
vn 0.92126 -0.385827 0 
vn 0.92126 -0.385827 0 
vn 0.92126 -0.385827 0 
vn 0.92126 -0.385827 0 
vn 0.92126 -0.385827 0 
vn 0.92126 -0.385827 0 
vn 0.92126 0.385827 0 
vn 0.92126 0.385827 0 
vn 0.92126 0.385827 0 
vn 0.92126 0.385827 0 
vn 0.92126 0.385827 0 
vn 0.92126 0.385827 0 
vn 0.92126 0.385827 0 
vn 0.92126 0.385827 0 
vn 0.685039 0.377953 -0.629921 
vn 0.685039 0.377953 -0.629921 
vn 0.685039 0.377953 -0.629921 
vn 0.685039 0.377953 -0.629921 
vn 0.685039 -0.377953 -0.629921 
vn 0.685039 -0.377953 -0.629921 
vn 0.685039 -0.377953 -0.629921 
vn 0.685039 -0.377953 -0.629921 
vn 0.787402 0 -0.614173 
vn 0.787402 0 -0.614173 
vn 0.787402 0 -0.614173 
vn 0.787402 0 -0.614173 
vn 0.708661 0.377953 0.598425 
vn 0.708661 0.377953 0.598425 
vn 0.708661 0.377953 0.598425 
vn 0.708661 0.377953 0.598425 
vn 0.708661 -0.377953 0.598425 
vn 0.708661 -0.377953 0.598425 
vn 0.708661 -0.377953 0.598425 
vn 0.708661 -0.377953 0.598425 
vn 0.811024 0 0.582677 
vn 0.811024 0 0.582677 
vn 0.811024 0 0.582677 
vn 0.811024 0 0.582677 
vn 0.88189 0.472441 0 
vn 0.88189 0.472441 0 
vn -0.88189 0.472441 0 
vn -0.88189 0.472441 0 
vn 0.88189 0.472441 0 
vn -0.88189 0.472441 0 
vn -0.88189 -0.472441 0 
vn 0.88189 -0.472441 0 
vn 0.511811 0.858268 0 
vn 0.511811 0.858268 0 
vn 0.511811 0.858268 0 
vn 0.511811 0.858268 0 
vn -0.511811 0.858268 0 
vn -0.511811 0.858268 0 
vn -0.511811 0.858268 0 
vn -0.511811 0.858268 0 
vn 0.511811 0.858268 0 
vn 0.511811 0.858268 0 
vn 0.511811 0.858268 0 
vn 0.511811 0.858268 0 
vn -0.511811 0.858268 0 
vn -0.511811 0.858268 0 
vn -0.511811 0.858268 0 
vn -0.511811 0.858268 0 
vn -0.598425 0.251969 -0.755906 
vn 0.598425 0.251969 -0.755906 
vn -0.598425 0.251969 0.755906 
vn 0.598425 0.251969 0.755906 
vn -0.92126 0.385827 0 
vn 0.92126 0.385827 0 
vn -0.173228 0.984252 0 
vn -0.173228 0.984252 0 
vn -0.173228 0.984252 0 
vn -0.173228 0.984252 0 
vn 0.173228 0.984252 0 
vn 0.173228 0.984252 0 
vn 0.173228 0.984252 0 
vn 0.173228 0.984252 0 
vn -0.173228 0.984252 0 
vn -0.173228 0.984252 0 
vn -0.173228 0.984252 0 
vn -0.173228 0.984252 0 
vn 0.173228 0.984252 0 
vn 0.173228 0.984252 0 
vn 0.173228 0.984252 0 
vn 0.173228 0.984252 0 
vn 0.0787402 0.472441 -0.874016 
vn 0.0787402 0.472441 -0.874016 
vn 0.0787402 0.472441 -0.874016 
vn 0.0787402 0.472441 -0.874016 
vn -0.0787402 0.472441 -0.874016 
vn -0.0787402 0.472441 -0.874016 
vn -0.0787402 0.472441 -0.874016 
vn -0.0787402 0.472441 -0.874016 
vn 0.0787402 0.472441 0.874016 
vn 0.0787402 0.472441 0.874016 
vn 0.0787402 0.472441 0.874016 
vn 0.0787402 0.472441 0.874016 
vn -0.0787402 0.472441 0.874016 
vn -0.0787402 0.472441 0.874016 
vn -0.0787402 0.472441 0.874016 
vn -0.0787402 0.472441 0.874016 
vn 0 1 0 
vn 0 1 0 
vn 0 1 0 
vn 0 1 0 
vn 0 1 0 
vn 0 1 0 
vn 0 1 0 
vn 0 1 0 
vn 0 0.480315 -0.874016 
vn 0 0.480315 -0.874016 
vn 0 0.480315 -0.874016 
vn 0 0.480315 -0.874016 
vn 0 0.480315 0.874016 
vn 0 0.480315 0.874016 
vn 0 0.480315 0.874016 
vn 0 0.480315 0.874016 
vn -0.251969 0.606299 -0.755906 
vn -0.251969 0.606299 -0.755906 
vn -0.251969 0.606299 -0.755906 
vn -0.251969 0.606299 -0.755906 
vn 0.251969 0.606299 -0.755906 
vn 0.251969 0.606299 -0.755906 
vn 0.251969 0.606299 -0.755906 
vn 0.251969 0.606299 -0.755906 
vn -0.251969 0.606299 0.755906 
vn -0.251969 0.606299 0.755906 
vn -0.251969 0.606299 0.755906 
vn -0.251969 0.606299 0.755906 
vn 0.251969 0.606299 0.755906 
vn 0.251969 0.606299 0.755906 
vn 0.251969 0.606299 0.755906 
vn 0.251969 0.606299 0.755906 
vn -0.377953 0.92126 0 
vn -0.377953 0.92126 0 
vn -0.377953 0.92126 0 
vn -0.377953 0.92126 0 
vn 0.377953 0.92126 0 
vn 0.377953 0.92126 0 
vn 0.377953 0.92126 0 
vn 0.377953 0.92126 0 
vn -0.377953 0.92126 0 
vn -0.377953 0.92126 0 
vn -0.377953 0.92126 0 
vn -0.377953 0.92126 0 
vn 0.377953 0.92126 0 
vn 0.377953 0.92126 0 
vn 0.377953 0.92126 0 
vn 0.377953 0.92126 0 
vn 0 0 1 
vn 0 0 1 
vn 0 0 1 
vn 0 0 1 
vn 0 -0.023622 -1 
vn 0 0.023622 -1 
vn 0.251969 0.606299 -0.755906 
vn 0.251969 0.606299 -0.755906 
vn 0.251969 0.606299 -0.755906 
vn 0.251969 0.606299 -0.755906 
vn -0.251969 0.606299 -0.755906 
vn -0.251969 0.606299 -0.755906 
vn -0.251969 0.606299 -0.755906 
vn -0.251969 0.606299 -0.755906 
vn 0.251969 0.606299 0.755906 
vn 0.251969 0.606299 0.755906 
vn 0.251969 0.606299 0.755906 
vn 0.251969 0.606299 0.755906 
vn -0.251969 0.606299 0.755906 
vn -0.251969 0.606299 0.755906 
vn -0.251969 0.606299 0.755906 
vn -0.251969 0.606299 0.755906 
vn 0.377953 0.92126 0 
vn 0.377953 0.92126 0 
vn 0.377953 0.92126 0 
vn 0.377953 0.92126 0 
vn -0.377953 0.92126 0 
vn -0.377953 0.92126 0 
vn -0.377953 0.92126 0 
vn -0.377953 0.92126 0 
vn 0.377953 0.92126 0 
vn 0.377953 0.92126 0 
vn 0.377953 0.92126 0 
vn 0.377953 0.92126 0 
vn -0.377953 0.92126 0 
vn -0.377953 0.92126 0 
vn -0.377953 0.92126 0 
vn -0.377953 0.92126 0 
vn 0 0.700787 -0.716535 
vn 0 0.700787 -0.716535 
vn 0 0.700787 -0.716535 
vn 0 0.700787 -0.716535 
vn 0 0.716535 0.700787 
vn 0 0.716535 0.700787 
vn 0 0.716535 0.700787 
vn 0 0.716535 0.700787 
vn -0.11811 0.708661 -0.700787 
vn -0.11811 0.708661 -0.700787 
vn -0.11811 0.708661 -0.700787 
vn -0.11811 0.708661 -0.700787 
vn 0.11811 0.708661 -0.700787 
vn 0.11811 0.708661 -0.700787 
vn 0.11811 0.708661 -0.700787 
vn 0.11811 0.708661 -0.700787 
vn -0.125984 0.724409 0.677165 
vn -0.125984 0.724409 0.677165 
vn -0.125984 0.724409 0.677165 
vn -0.125984 0.724409 0.677165 
vn 0.125984 0.724409 0.677165 
vn 0.125984 0.724409 0.677165 
vn 0.125984 0.724409 0.677165 
vn 0.125984 0.724409 0.677165 
vn 0.598425 -0.251969 -0.755906 
vn -0.598425 -0.251969 -0.755906 
vn 0.598425 -0.251969 0.755906 
vn -0.598425 -0.251969 0.755906 
vn -0.370079 0.645669 -0.669291 
vn -0.370079 0.645669 -0.669291 
vn -0.370079 0.645669 -0.669291 
vn -0.370079 0.645669 -0.669291 
vn 0.370079 0.645669 -0.669291 
vn 0.370079 0.645669 -0.669291 
vn 0.370079 0.645669 -0.669291 
vn 0.370079 0.645669 -0.669291 
vn -0.385827 0.653543 0.645669 
vn -0.385827 0.653543 0.645669 
vn -0.385827 0.653543 0.645669 
vn -0.385827 0.653543 0.645669 
vn 0.385827 0.653543 0.645669 
vn 0.385827 0.653543 0.645669 
vn 0.385827 0.653543 0.645669 
vn 0.385827 0.653543 0.645669 
vn 1 0 0 
vn -1 0 0 
vn 1 0 0 
vn 1 0 0 
vn -1 0 0 
vn -1 0 0 
vn 0.88189 0.472441 0 
vn -0.88189 0.472441 0 
vn 0.88189 0.472441 0 
vn -0.88189 0.472441 0 
vn -0.88189 -0.472441 0 
vn 0.88189 -0.472441 0 
vn -0.88189 -0.472441 0 
vn 0.88189 -0.472441 0 
vn 0.480315 0 -0.874016 
vn -0.480315 0 -0.874016 
vn 0.480315 0 0.874016 
vn -0.480315 0 0.874016 
vn -0.425197 0.228346 0.874016 
vn -0.425197 0.228346 0.874016 
vn -0.425197 0.228346 0.874016 
vn -0.425197 0.228346 0.874016 
vn 0.425197 0.228346 0.874016 
vn 0.425197 0.228346 0.874016 
vn 0.425197 0.228346 0.874016 
vn 0.425197 0.228346 0.874016 
vn 0.425197 -0.228346 0.874016 
vn 0.425197 -0.228346 0.874016 
vn 0.425197 -0.228346 0.874016 
vn 0.425197 -0.228346 0.874016 
vn -0.425197 -0.228346 0.874016 
vn -0.425197 -0.228346 0.874016 
vn -0.425197 -0.228346 0.874016 
vn -0.425197 -0.228346 0.874016 
vn 0.511811 0.858268 0 
vn -0.511811 0.858268 0 
vn -0.511811 -0.858268 0 
vn 0.511811 -0.858268 0 
vn -0.598425 -0.251969 -0.755906 
vn 0.598425 -0.251969 -0.755906 
vn -0.244094 0.417323 0.874016 
vn -0.244094 0.417323 0.874016 
vn -0.244094 0.417323 0.874016 
vn -0.244094 0.417323 0.874016 
vn 0.244094 0.417323 0.874016 
vn 0.244094 0.417323 0.874016 
vn 0.244094 0.417323 0.874016 
vn 0.244094 0.417323 0.874016 
vn -0.244094 -0.417323 -0.874016 
vn 0.244094 -0.417323 0.874016 
vn 0.244094 -0.417323 0.874016 
vn 0.244094 -0.417323 0.874016 
vn 0.244094 -0.417323 0.874016 
vn -0.244094 -0.417323 0.874016 
vn -0.244094 -0.417323 0.874016 
vn -0.244094 -0.417323 0.874016 
vn -0.244094 -0.417323 0.874016 
vn -0.173228 0.984252 0 
vn 0.173228 0.984252 0 
vn 0.0787402 -0.472441 -0.874016 
vn 0 0 1 
vn 0 0 1 
vn 0 0 1 
vn 0 0 1 
vn 0 0 1 
vn 0 0 1 
vn 0 0 1 
vn 0 0 1 
vn 0 0 1 
vn 0 0 1 
vn 0 0 1 
vn 0 0 1 
vn 0 0 1 
vn 0 0 1 
vn 0 0 1 
vn 0 0 1 
vn 0 0 1 
vn 0 0 1 
vn 0 0 1 
vn 0 0 1 
vn 0 0 1 
vn 0 0 1 
vn 0 0 1 
vn 0 0 1 
vn 0 0 1 
vn 0 0 1 
vn 0 0 1 
vn 0 0 1 
vn 0 0 1 
vn 0 0 1 
vn 0 0 1 
vn 0 0 1 
vn 0 0 1 
vn 0 0 1 
vn 0 0 1 
vn 0 0 1 
vn 0 0 1 
vn 0 0 1 
vn 0 0 1 
vn 0 0 1 
vn 0 0 1 
vn 0 0 1 
vn 0 0 1 
vn 0 0 1 
vn 0 0 1 
vn 0 0 1 
vn 0 0 1 
vn 0 0 1 
vn 0 0 1 
vn 0 0 1 
vn 0 0 1 
vn 0 0 1 
vn 0 0 1 
vn 0 0 1 
vn 0 0 1 
vn 0 0 1 
vn 0 0 1 
vn 0 0 1 
vn 0 0 1 
vn 0 0 1 
vn 0 0 1 
vn 0 0 1 
vn 0 0 1 
vn 0 0 1 
vn 0 0 1 
vn 0 0 1 
vn 0 0 1 
vn 0 0 1 
vn 0 0 1 
vn 0 0 1 
vn 0 0 1 
vn 0 0 1 
vn 0 0 1 
vn 0 0 1 
vn 0 0 1 
vn 0 0 1 
vn 0 0 1 
vn 0 0 1 
vn 0 0 1 
vn 0 0 1 
vn 0 0 1 
vn 0 0 1 
vn 0 0 1 
vn 0 0 1 
vn 0 0 1 
vn 0 0 1 
vn 0 0 1 
vn 0 0 1 
vn 0 0 1 
vn 0 0 1 
vn 0 0 1 
vn 0 0 1 
vn 0 0 1 
vn 0 0 1 
vn -1 0 0 
vn -1 0 0 
vn -1 0 0 
vn -1 0 0 
vn -1 0 0 
vn -1 0 0 
vn -1 0 0 
vn -1 0 0 
vn 0.88189 0.472441 0 
vn -0.88189 0.472441 0 
vn -0.88189 0.472441 0 
vn -0.88189 0.472441 0 
vn -0.88189 0.472441 0 
vn -0.88189 0.472441 0 
vn -0.88189 0.472441 0 
vn -0.88189 0.472441 0 
vn -0.88189 0.472441 0 
vn -0.88189 -0.472441 0 
vn -0.88189 -0.472441 0 
vn -0.88189 -0.472441 0 
vn -0.88189 -0.472441 0 
vn 0.88189 -0.472441 0 
vn -0.88189 -0.472441 0 
vn -0.88189 -0.472441 0 
vn -0.88189 -0.472441 0 
vn -0.88189 -0.472441 0 
vn -0.480315 0 -0.874016 
vn -0.480315 0 -0.874016 
vn -0.480315 0 -0.874016 
vn -0.480315 0 -0.874016 
vn -0.480315 0 0.874016 
vn -0.480315 0 0.874016 
vn -0.480315 0 0.874016 
vn -0.480315 0 0.874016 
vn -0.511811 0.858268 0 
vn -0.598425 -0.251969 -0.755906 
vn -0.598425 -0.251969 -0.755906 
vn -0.598425 -0.251969 -0.755906 
vn -0.598425 -0.251969 -0.755906 
vn -0.598425 -0.251969 0.755906 
vn -0.598425 -0.251969 0.755906 
vn -0.598425 -0.251969 0.755906 
vn -0.598425 -0.251969 0.755906 
vn -0.598425 0.251969 -0.755906 
vn -0.598425 0.251969 -0.755906 
vn -0.598425 0.251969 -0.755906 
vn -0.598425 0.251969 -0.755906 
vn 0.598425 0.251969 -0.755906 
vn -0.598425 0.251969 0.755906 
vn -0.598425 0.251969 0.755906 
vn -0.598425 0.251969 0.755906 
vn -0.598425 0.251969 0.755906 
vn 0.598425 0.251969 0.755906 
vn -0.92126 -0.385827 0 
vn -0.92126 -0.385827 0 
vn -0.92126 -0.385827 0 
vn -0.92126 -0.385827 0 
vn -0.92126 -0.385827 0 
vn -0.92126 -0.385827 0 
vn -0.92126 -0.385827 0 
vn -0.92126 -0.385827 0 
vn -0.92126 0.385827 0 
vn -0.92126 0.385827 0 
vn -0.92126 0.385827 0 
vn -0.92126 0.385827 0 
vn 0.92126 0.385827 0 
vn -0.92126 0.385827 0 
vn -0.92126 0.385827 0 
vn -0.92126 0.385827 0 
vn -0.92126 0.385827 0 
vn -0.251969 -0.606299 -0.755906 
vn 0.251969 -0.606299 -0.755906 
vn -0.251969 -0.606299 0.755906 
vn 0.251969 -0.606299 0.755906 
vn -0.377953 -0.92126 0 
vn 0.377953 -0.92126 0 
vn 0 0 1 
vn 0 0 1 
vn 0 0 1 
vn 0 0 1 
vn -0.598425 -0.251969 -0.755906 
vn -0.598425 -0.251969 -0.755906 
vn -0.598425 -0.251969 -0.755906 
vn -0.598425 -0.251969 -0.755906 
vn -0.598425 -0.251969 0.755906 
vn -0.598425 -0.251969 0.755906 
vn -0.598425 -0.251969 0.755906 
vn -0.598425 -0.251969 0.755906 
vn -0.598425 0.251969 -0.755906 
vn -0.598425 0.251969 -0.755906 
vn -0.598425 0.251969 -0.755906 
vn -0.598425 0.251969 -0.755906 
vn -0.598425 0.251969 0.755906 
vn -0.598425 0.251969 0.755906 
vn -0.598425 0.251969 0.755906 
vn -0.598425 0.251969 0.755906 
vn -0.92126 -0.385827 0 
vn -0.92126 -0.385827 0 
vn -0.92126 -0.385827 0 
vn -0.92126 -0.385827 0 
vn -0.92126 -0.385827 0 
vn -0.92126 -0.385827 0 
vn -0.92126 -0.385827 0 
vn -0.92126 -0.385827 0 
vn -0.92126 0.385827 0 
vn -0.92126 0.385827 0 
vn -0.92126 0.385827 0 
vn -0.92126 0.385827 0 
vn -0.92126 0.385827 0 
vn -0.92126 0.385827 0 
vn -0.92126 0.385827 0 
vn -0.92126 0.385827 0 
vn -0.685039 0.377953 -0.629921 
vn -0.685039 0.377953 -0.629921 
vn -0.685039 0.377953 -0.629921 
vn -0.685039 0.377953 -0.629921 
vn -0.685039 -0.377953 -0.629921 
vn -0.685039 -0.377953 -0.629921 
vn -0.685039 -0.377953 -0.629921 
vn -0.685039 -0.377953 -0.629921 
vn -0.787402 0 -0.614173 
vn -0.787402 0 -0.614173 
vn -0.787402 0 -0.614173 
vn -0.787402 0 -0.614173 
vn -0.708661 0.377953 0.598425 
vn -0.708661 0.377953 0.598425 
vn -0.708661 0.377953 0.598425 
vn -0.708661 0.377953 0.598425 
vn -0.708661 -0.377953 0.598425 
vn -0.708661 -0.377953 0.598425 
vn -0.708661 -0.377953 0.598425 
vn -0.708661 -0.377953 0.598425 
vn -0.811024 0 0.582677 
vn -0.811024 0 0.582677 
vn -0.811024 0 0.582677 
vn -0.811024 0 0.582677 
vn 0.88189 0.472441 0 
vn -0.88189 0.472441 0 
vn -0.88189 -0.472441 0 
vn -0.88189 -0.472441 0 
vn 0.88189 -0.472441 0 
vn 0.88189 -0.472441 0 
vn -0.88189 -0.472441 0 
vn 0.88189 -0.472441 0 
vn -0.511811 -0.858268 0 
vn -0.511811 -0.858268 0 
vn -0.511811 -0.858268 0 
vn -0.511811 -0.858268 0 
vn 0.511811 -0.858268 0 
vn 0.511811 -0.858268 0 
vn 0.511811 -0.858268 0 
vn 0.511811 -0.858268 0 
vn -0.511811 -0.858268 0 
vn -0.511811 -0.858268 0 
vn -0.511811 -0.858268 0 
vn -0.511811 -0.858268 0 
vn 0.511811 -0.858268 0 
vn 0.511811 -0.858268 0 
vn 0.511811 -0.858268 0 
vn 0.511811 -0.858268 0 
vn -0.598425 0.251969 -0.755906 
vn 0.598425 0.251969 -0.755906 
vn -0.598425 0.251969 0.755906 
vn 0.598425 0.251969 0.755906 
vn -0.92126 0.385827 0 
vn 0.92126 0.385827 0 
vn -0.244094 -0.417323 -0.874016 
vn 0.173228 -0.984252 0 
vn 0.173228 -0.984252 0 
vn 0.173228 -0.984252 0 
vn 0.173228 -0.984252 0 
vn -0.173228 -0.984252 0 
vn -0.173228 -0.984252 0 
vn -0.173228 -0.984252 0 
vn -0.173228 -0.984252 0 
vn 0.173228 -0.984252 0 
vn 0.173228 -0.984252 0 
vn 0.173228 -0.984252 0 
vn 0.173228 -0.984252 0 
vn -0.173228 -0.984252 0 
vn -0.173228 -0.984252 0 
vn -0.173228 -0.984252 0 
vn -0.173228 -0.984252 0 
vn 0.0787402 -0.472441 -0.874016 
vn 0.0787402 -0.472441 -0.874016 
vn 0.0787402 -0.472441 -0.874016 
vn 0.0787402 -0.472441 -0.874016 
vn -0.0787402 -0.472441 -0.874016 
vn -0.0787402 -0.472441 -0.874016 
vn -0.0787402 -0.472441 -0.874016 
vn -0.0787402 -0.472441 -0.874016 
vn 0.0787402 -0.472441 0.874016 
vn 0.0787402 -0.472441 0.874016 
vn 0.0787402 -0.472441 0.874016 
vn 0.0787402 -0.472441 0.874016 
vn -0.0787402 -0.472441 0.874016 
vn -0.0787402 -0.472441 0.874016 
vn -0.0787402 -0.472441 0.874016 
vn -0.0787402 -0.472441 0.874016 
vn 0 -1 0 
vn 0 -1 0 
vn 0 -1 0 
vn 0 -1 0 
vn 0 -1 0 
vn 0 -1 0 
vn 0 -1 0 
vn 0 -1 0 
vn 0 -0.480315 -0.874016 
vn 0 -0.480315 -0.874016 
vn 0 -0.480315 -0.874016 
vn 0 -0.480315 -0.874016 
vn 0 -0.480315 0.874016 
vn 0 -0.480315 0.874016 
vn 0 -0.480315 0.874016 
vn 0 -0.480315 0.874016 
vn -0.251969 -0.606299 -0.755906 
vn -0.251969 -0.606299 -0.755906 
vn -0.251969 -0.606299 -0.755906 
vn -0.251969 -0.606299 -0.755906 
vn 0.251969 -0.606299 -0.755906 
vn 0.251969 -0.606299 -0.755906 
vn 0.251969 -0.606299 -0.755906 
vn 0.251969 -0.606299 -0.755906 
vn -0.251969 -0.606299 0.755906 
vn -0.251969 -0.606299 0.755906 
vn -0.251969 -0.606299 0.755906 
vn -0.251969 -0.606299 0.755906 
vn 0.251969 -0.606299 0.755906 
vn 0.251969 -0.606299 0.755906 
vn 0.251969 -0.606299 0.755906 
vn 0.251969 -0.606299 0.755906 
vn -0.377953 -0.92126 0 
vn -0.377953 -0.92126 0 
vn -0.377953 -0.92126 0 
vn -0.377953 -0.92126 0 
vn 0.377953 -0.92126 0 
vn 0.377953 -0.92126 0 
vn 0.377953 -0.92126 0 
vn 0.377953 -0.92126 0 
vn -0.377953 -0.92126 0 
vn -0.377953 -0.92126 0 
vn -0.377953 -0.92126 0 
vn -0.377953 -0.92126 0 
vn 0.377953 -0.92126 0 
vn 0.377953 -0.92126 0 
vn 0.377953 -0.92126 0 
vn 0.377953 -0.92126 0 
vn 0 0 1 
vn 0 0 1 
vn 0 0 1 
vn 0 0 1 
vn 0 -0.023622 -1 
vn 0 0.023622 -1 
vn 0.251969 -0.606299 -0.755906 
vn 0.251969 -0.606299 -0.755906 
vn 0.251969 -0.606299 -0.755906 
vn 0.251969 -0.606299 -0.755906 
vn -0.251969 -0.606299 -0.755906 
vn -0.251969 -0.606299 -0.755906 
vn -0.251969 -0.606299 -0.755906 
vn -0.251969 -0.606299 -0.755906 
vn 0.251969 -0.606299 0.755906 
vn 0.251969 -0.606299 0.755906 
vn 0.251969 -0.606299 0.755906 
vn 0.251969 -0.606299 0.755906 
vn -0.251969 -0.606299 0.755906 
vn -0.251969 -0.606299 0.755906 
vn -0.251969 -0.606299 0.755906 
vn -0.251969 -0.606299 0.755906 
vn 0.377953 -0.92126 0 
vn 0.377953 -0.92126 0 
vn 0.377953 -0.92126 0 
vn 0.377953 -0.92126 0 
vn -0.377953 -0.92126 0 
vn -0.377953 -0.92126 0 
vn -0.377953 -0.92126 0 
vn -0.377953 -0.92126 0 
vn 0.377953 -0.92126 0 
vn 0.377953 -0.92126 0 
vn 0.377953 -0.92126 0 
vn 0.377953 -0.92126 0 
vn -0.377953 -0.92126 0 
vn -0.377953 -0.92126 0 
vn -0.377953 -0.92126 0 
vn -0.377953 -0.92126 0 
vn 0 -0.700787 -0.716535 
vn 0 -0.700787 -0.716535 
vn 0 -0.700787 -0.716535 
vn 0 -0.700787 -0.716535 
vn 0 -0.716535 0.700787 
vn 0 -0.716535 0.700787 
vn 0 -0.716535 0.700787 
vn 0 -0.716535 0.700787 
vn -0.11811 -0.708661 -0.700787 
vn -0.11811 -0.708661 -0.700787 
vn -0.11811 -0.708661 -0.700787 
vn -0.11811 -0.708661 -0.700787 
vn 0.11811 -0.708661 -0.700787 
vn 0.11811 -0.708661 -0.700787 
vn 0.11811 -0.708661 -0.700787 
vn 0.11811 -0.708661 -0.700787 
vn -0.125984 -0.724409 0.677165 
vn -0.125984 -0.724409 0.677165 
vn -0.125984 -0.724409 0.677165 
vn -0.125984 -0.724409 0.677165 
vn 0.125984 -0.724409 0.677165 
vn 0.125984 -0.724409 0.677165 
vn 0.125984 -0.724409 0.677165 
vn 0.125984 -0.724409 0.677165 
vn 0.598425 -0.251969 -0.755906 
vn -0.598425 -0.251969 -0.755906 
vn 0.598425 -0.251969 0.755906 
vn -0.598425 -0.251969 0.755906 
vn 0.370079 -0.645669 -0.669291 
vn 0.370079 -0.645669 -0.669291 
vn 0.370079 -0.645669 -0.669291 
vn 0.370079 -0.645669 -0.669291 
vn -0.370079 -0.645669 -0.669291 
vn -0.370079 -0.645669 -0.669291 
vn -0.370079 -0.645669 -0.669291 
vn -0.370079 -0.645669 -0.669291 
vn 0.385827 -0.653543 0.645669 
vn 0.385827 -0.653543 0.645669 
vn 0.385827 -0.653543 0.645669 
vn 0.385827 -0.653543 0.645669 
vn -0.385827 -0.653543 0.645669 
vn -0.385827 -0.653543 0.645669 
vn -0.385827 -0.653543 0.645669 
vn -0.385827 -0.653543 0.645669 
vn 1 0 0 
vn 1 0 0 
vn 1 0 0 
vn -1 0 0 
vn -1 0 0 
vn -1 0 0 
vn 0.88189 0.472441 0 
vn 0.88189 0.472441 0 
vn -0.88189 0.472441 0 
vn -0.88189 0.472441 0 
vn -0.88189 -0.472441 0 
vn -0.88189 -0.472441 0 
vn 0.88189 -0.472441 0 
vn 0.88189 -0.472441 0 
vn 0.480315 0 -0.874016 
vn 0.480315 0 -0.874016 
vn -0.480315 0 -0.874016 
vn -0.480315 0 -0.874016 
vn -0.425197 0.228346 -0.874016 
vn -0.425197 0.228346 -0.874016 
vn -0.425197 0.228346 -0.874016 
vn -0.425197 0.228346 -0.874016 
vn 0.425197 0.228346 -0.874016 
vn 0.425197 0.228346 -0.874016 
vn 0.425197 0.228346 -0.874016 
vn 0.425197 0.228346 -0.874016 
vn 0.425197 -0.228346 -0.874016 
vn 0.425197 -0.228346 -0.874016 
vn 0.425197 -0.228346 -0.874016 
vn 0.425197 -0.228346 -0.874016 
vn -0.425197 -0.228346 -0.874016 
vn -0.425197 -0.228346 -0.874016 
vn -0.425197 -0.228346 -0.874016 
vn -0.425197 -0.228346 -0.874016 
vn 0.511811 0.858268 0 
vn -0.511811 0.858268 0 
vn -0.511811 -0.858268 0 
vn 0.511811 -0.858268 0 
vn -0.598425 -0.251969 -0.755906 
vn 0.598425 -0.251969 -0.755906 
vn -0.244094 0.417323 -0.874016 
vn -0.244094 0.417323 -0.874016 
vn -0.244094 0.417323 -0.874016 
vn -0.244094 0.417323 -0.874016 
vn 0.244094 0.417323 -0.874016 
vn 0.244094 0.417323 -0.874016 
vn 0.244094 0.417323 -0.874016 
vn 0.244094 0.417323 -0.874016 
vn 0.244094 -0.417323 -0.874016 
vn 0.244094 -0.417323 -0.874016 
vn 0.244094 -0.417323 -0.874016 
vn 0.244094 -0.417323 -0.874016 
vn -0.244094 -0.417323 -0.874016 
vn -0.244094 -0.417323 -0.874016 
vn -0.244094 -0.417323 -0.874016 
vn -0.244094 -0.417323 -0.874016 
vn -0.173228 0.984252 0 
vn 0.173228 0.984252 0 
vn 0.0787402 -0.472441 -0.874016 
vn 0 0 -1 
vn 0 0 -1 
vn 0 0 -1 
vn 0 0 -1 
vn 0 0 -1 
vn 0 0 -1 
vn 0 0 -1 
vn 0 0 -1 
vn 0 0 -1 
vn 0 0 -1 
vn 0 0 -1 
vn 0 0 -1 
vn 0 0 -1 
vn 0 0 -1 
vn 0 0 -1 
vn 0 0 -1 
vn 0 -0.023622 -1 
vn 0 -0.023622 -1 
vn 0 -0.023622 -1 
vn 0 -0.023622 -1 
vn 0 0.023622 -1 
vn 0 0.023622 -1 
vn 0 0.023622 -1 
vn 0 0.023622 -1 
vn 0 -0.023622 -1 
vn 0 -0.023622 -1 
vn 0 -0.023622 -1 
vn 0 -0.023622 -1 
vn 0 -0.023622 -1 
vn 0 -0.023622 -1 
vn 0 -0.023622 -1 
vn 0 -0.023622 -1 
vn 0 0.023622 -1 
vn 0 0.023622 -1 
vn 0 0.023622 -1 
vn 0 0.023622 -1 
vn 0 0.023622 -1 
vn 0 0.023622 -1 
vn 0 0.023622 -1 
vn 0 0.023622 -1 
vn -0.00787402 0.015748 -1 
vn -0.00787402 0.015748 -1 
vn -0.00787402 0.015748 -1 
vn -0.00787402 0.015748 -1 
vn 0.00787402 -0.015748 -1 
vn 0.00787402 -0.015748 -1 
vn 0.00787402 -0.015748 -1 
vn 0.00787402 -0.015748 -1 
vn 0.00787402 0.015748 -1 
vn 0.00787402 0.015748 -1 
vn 0.00787402 0.015748 -1 
vn 0.00787402 0.015748 -1 
vn -0.00787402 -0.015748 -1 
vn -0.00787402 -0.015748 -1 
vn -0.00787402 -0.015748 -1 
vn -0.00787402 -0.015748 -1 
vn -0.015748 0.00787402 -1 
vn -0.015748 0.00787402 -1 
vn -0.015748 0.00787402 -1 
vn -0.015748 0.00787402 -1 
vn 0.015748 -0.00787402 -1 
vn 0.015748 -0.00787402 -1 
vn 0.015748 -0.00787402 -1 
vn 0.015748 -0.00787402 -1 
vn -0.015748 -0.00787402 -1 
vn -0.015748 -0.00787402 -1 
vn -0.015748 -0.00787402 -1 
vn -0.015748 -0.00787402 -1 
vn 0.015748 0.00787402 -1 
vn 0.015748 0.00787402 -1 
vn 0.015748 0.00787402 -1 
vn 0.015748 0.00787402 -1 
vn 0.015748 0 -1 
vn 0.015748 0 -1 
vn 0.015748 0 -1 
vn 0.015748 0 -1 
vn -0.015748 0 -1 
vn -0.015748 0 -1 
vn -0.015748 0 -1 
vn -0.015748 0 -1 
vn 0 0 -1 
vn 0 0 -1 
vn 0 0 -1 
vn 0 0 -1 
vn 0 0 -1 
vn 0 0 -1 
vn 0 0 -1 
vn 0 0 -1 
vn 0 0 -1 
vn 0 0 -1 
vn 0 0 -1 
vn 0 0 -1 
vn 0 0 -1 
vn 0 0 -1 
vn 0 0 -1 
vn 0 0 -1 
vn 0 0 -1 
vn 0 0 -1 
vn 0 0 -1 
vn 0 0 -1 

vt -0.491504 -0.233013 
vt -0.50731 -0.273918 
vt -0.491504 -0.273918 
vt -0.50731 -0.233013 
vt -0.50731 -0.233013 
vt -0.523115 -0.273918 
vt -0.50731 -0.273918 
vt -0.523115 -0.233013 
vt -0.491504 -0.233013 
vt -0.491504 -0.201442 
vt -0.50731 -0.233013 
vt -0.50731 -0.201442 
vt -0.50731 -0.201442 
vt -0.50731 -0.201442 
vt -0.523115 -0.233013 
vt -0.50731 -0.233013 
vt -0.523115 -0.201442 
vt -0.50731 -0.305489 
vt -0.491504 -0.273918 
vt -0.50731 -0.305489 
vt -0.491504 -0.305489 
vt -0.50731 -0.273918 
vt -0.50731 -0.273918 
vt -0.523115 -0.305489 
vt -0.50731 -0.305489 
vt -0.523115 -0.273918 
vt -0.491504 -0.233013 
vt -0.487996 -0.272326 
vt -0.487996 -0.234605 
vt -0.491504 -0.273918 
vt -0.523115 -0.273918 
vt -0.526624 -0.234605 
vt -0.526624 -0.272326 
vt -0.523115 -0.233013 
vt -0.491504 -0.181732 
vt -0.489461 -0.254587 
vt -0.486785 -0.258816 
vt -0.486785 -0.254587 
vt -0.489461 -0.261189 
vt -0.525158 -0.254587 
vt -0.527834 -0.258816 
vt -0.525158 -0.261189 
vt -0.527834 -0.254587 
vt -0.486785 -0.250358 
vt -0.486785 -0.250358 
vt -0.489461 -0.254587 
vt -0.486785 -0.254587 
vt -0.489461 -0.247985 
vt -0.527834 -0.250358 
vt -0.525158 -0.247985 
vt -0.527834 -0.250358 
vt -0.525158 -0.254587 
vt -0.527834 -0.254587 
vt -0.489461 -0.254587 
vt -0.50731 -0.254587 
vt -0.489461 -0.261189 
vt -0.50731 -0.261189 
vt -0.525158 -0.261189 
vt -0.50731 -0.261189 
vt -0.50731 -0.254587 
vt -0.525158 -0.254587 
vt -0.50731 -0.247985 
vt -0.489461 -0.247985 
vt -0.50731 -0.247985 
vt -0.489461 -0.254587 
vt -0.50731 -0.254587 
vt -0.525158 -0.254587 
vt -0.50731 -0.254587 
vt -0.50731 -0.247985 
vt -0.525158 -0.247985 
vt -0.489461 -0.263923 
vt -0.489461 -0.263923 
vt -0.525158 -0.263923 
vt -0.525158 -0.263923 
vt -0.50731 -0.263923 
vt -0.50731 -0.263923 
vt -0.526624 -0.296547 
vt -0.526624 -0.210384 
vt -0.526624 -0.210384 
vt -0.526624 -0.296547 
vt -0.486785 -0.258816 
vt -0.486785 -0.254587 
vt -0.489461 -0.254587 
vt -0.489461 -0.261189 
vt -0.525158 -0.261189 
vt -0.525158 -0.254587 
vt -0.527834 -0.258816 
vt -0.527834 -0.254587 
vt -0.486785 -0.250358 
vt -0.489461 -0.254587 
vt -0.486785 -0.254587 
vt -0.489461 -0.247985 
vt -0.527834 -0.250358 
vt -0.525158 -0.254587 
vt -0.525158 -0.247985 
vt -0.527834 -0.254587 
vt -0.489461 -0.254587 
vt -0.50731 -0.261189 
vt -0.489461 -0.261189 
vt -0.50731 -0.254587 
vt -0.50731 -0.254587 
vt -0.525158 -0.254587 
vt -0.50731 -0.261189 
vt -0.525158 -0.261189 
vt -0.489461 -0.247985 
vt -0.50731 -0.254587 
vt -0.489461 -0.254587 
vt -0.50731 -0.247985 
vt -0.50731 -0.247985 
vt -0.525158 -0.247985 
vt -0.50731 -0.254587 
vt -0.525158 -0.254587 
vt -0.48826 -0.269041 
vt -0.491433 -0.289837 
vt -0.48826 -0.292176 
vt -0.491433 -0.268253 
vt -0.48826 -0.23789 
vt -0.48826 -0.214756 
vt -0.491433 -0.217094 
vt -0.491433 -0.238678 
vt -0.48826 -0.269041 
vt -0.48826 -0.23789 
vt -0.491433 -0.238678 
vt -0.491433 -0.268253 
vt -0.526624 -0.2708 
vt -0.522922 -0.293945 
vt -0.522922 -0.269923 
vt -0.526624 -0.296547 
vt -0.526624 -0.210384 
vt -0.526624 -0.236131 
vt -0.522922 -0.212986 
vt -0.522922 -0.237008 
vt -0.526624 -0.236131 
vt -0.526624 -0.2708 
vt -0.522922 -0.237008 
vt -0.522922 -0.269923 
vt -0.634828 -0.269271 
vt -0.634828 -0.253466 
vt -0.379791 -0.269271 
vt -0.379791 -0.253466 
vt -0.634828 -0.23766 
vt -0.379791 -0.23766 
vt -0.379791 -0.253466 
vt -0.634828 -0.253466 
vt -0.634828 -0.269271 
vt -0.601612 -0.269271 
vt -0.634828 -0.253466 
vt -0.601612 -0.253466 
vt -0.413007 -0.269271 
vt -0.379791 -0.253466 
vt -0.413007 -0.253466 
vt -0.379791 -0.269271 
vt -0.601612 -0.253466 
vt -0.634828 -0.23766 
vt -0.634828 -0.253466 
vt -0.601612 -0.23766 
vt -0.379791 -0.253466 
vt -0.379791 -0.23766 
vt -0.413007 -0.253466 
vt -0.413007 -0.23766 
vt -0.400149 -0.27399 
vt -0.61447 -0.27399 
vt -0.400149 -0.232941 
vt -0.61447 -0.232941 
vt -0.397766 -0.253466 
vt -0.616853 -0.253466 
vt -0.413007 -0.269271 
vt -0.428377 -0.253466 
vt -0.428377 -0.269271 
vt -0.413007 -0.253466 
vt -0.586242 -0.269271 
vt -0.601612 -0.253466 
vt -0.601612 -0.269271 
vt -0.586242 -0.253466 
vt -0.428377 -0.253466 
vt -0.413007 -0.23766 
vt -0.428377 -0.23766 
vt -0.413007 -0.253466 
vt -0.601612 -0.253466 
vt -0.586242 -0.23766 
vt -0.601612 -0.23766 
vt -0.586242 -0.253466 
vt -0.599351 -0.272779 
vt -0.586242 -0.269271 
vt -0.601612 -0.269271 
vt -0.585688 -0.272779 
vt -0.428377 -0.269271 
vt -0.415268 -0.272779 
vt -0.413007 -0.269271 
vt -0.428931 -0.272779 
vt -0.599351 -0.234151 
vt -0.586242 -0.23766 
vt -0.585688 -0.234151 
vt -0.601612 -0.23766 
vt -0.428377 -0.23766 
vt -0.415268 -0.234151 
vt -0.428931 -0.234151 
vt -0.413007 -0.23766 
vt -0.428377 -0.269271 
vt -0.586242 -0.253466 
vt -0.586242 -0.269271 
vt -0.428377 -0.253466 
vt -0.428377 -0.23766 
vt -0.586242 -0.253466 
vt -0.428377 -0.253466 
vt -0.586242 -0.23766 
vt -0.586242 -0.269271 
vt -0.428931 -0.272779 
vt -0.428377 -0.269271 
vt -0.585688 -0.272779 
vt -0.428931 -0.234151 
vt -0.586242 -0.23766 
vt -0.428377 -0.23766 
vt -0.585688 -0.234151 
vt -0.400149 -0.27399 
vt -0.404395 -0.271314 
vt -0.404395 -0.27399 
vt -0.397766 -0.271314 
vt -0.610224 -0.271314 
vt -0.61447 -0.27399 
vt -0.610224 -0.27399 
vt -0.616853 -0.271314 
vt -0.400149 -0.232941 
vt -0.404395 -0.235617 
vt -0.397766 -0.235617 
vt -0.404395 -0.232941 
vt -0.610224 -0.235617 
vt -0.61447 -0.232941 
vt -0.616853 -0.235617 
vt -0.610224 -0.232941 
vt -0.397766 -0.271314 
vt -0.404395 -0.253466 
vt -0.404395 -0.271314 
vt -0.397766 -0.253466 
vt -0.610224 -0.271314 
vt -0.610224 -0.253466 
vt -0.616853 -0.271314 
vt -0.616853 -0.253466 
vt -0.397766 -0.235617 
vt -0.404395 -0.253466 
vt -0.397766 -0.253466 
vt -0.404395 -0.235617 
vt -0.616853 -0.235617 
vt -0.616853 -0.253466 
vt -0.610224 -0.253466 
vt -0.610224 -0.235617 
vt -0.625409 -0.234151 
vt -0.38921 -0.234151 
vt -0.625409 -0.234151 
vt -0.38921 -0.234151 
vt -0.579337 -0.272515 
vt -0.435282 -0.272515 
vt -0.408641 -0.27399 
vt -0.404395 -0.27399 
vt -0.404395 -0.271314 
vt -0.411024 -0.271314 
vt -0.605978 -0.27399 
vt -0.610224 -0.271314 
vt -0.610224 -0.27399 
vt -0.603595 -0.271314 
vt -0.411024 -0.235617 
vt -0.404395 -0.235617 
vt -0.408641 -0.232941 
vt -0.404395 -0.232941 
vt -0.603595 -0.235617 
vt -0.605978 -0.232941 
vt -0.610224 -0.235617 
vt -0.610224 -0.232941 
vt -0.404395 -0.271314 
vt -0.411024 -0.253466 
vt -0.411024 -0.271314 
vt -0.404395 -0.253466 
vt -0.603595 -0.271314 
vt -0.603595 -0.253466 
vt -0.610224 -0.271314 
vt -0.610224 -0.253466 
vt -0.404395 -0.235617 
vt -0.411024 -0.253466 
vt -0.404395 -0.253466 
vt -0.411024 -0.235617 
vt -0.610224 -0.235617 
vt -0.610224 -0.253466 
vt -0.603595 -0.253466 
vt -0.603595 -0.235617 
vt -0.435282 -0.272515 
vt -0.579957 -0.269343 
vt -0.579337 -0.272515 
vt -0.434662 -0.269343 
vt -0.429463 -0.234151 
vt -0.585156 -0.234151 
vt -0.428792 -0.237853 
vt -0.585827 -0.237853 
vt -0.590462 -0.272515 
vt -0.579337 -0.272515 
vt -0.579957 -0.269343 
vt -0.590131 -0.269343 
vt -0.424157 -0.272515 
vt -0.434662 -0.269343 
vt -0.435282 -0.272515 
vt -0.424489 -0.269343 
vt -0.585156 -0.234151 
vt -0.597181 -0.234151 
vt -0.585827 -0.237853 
vt -0.596822 -0.237853 
vt -0.417438 -0.234151 
vt -0.428792 -0.237853 
vt -0.417797 -0.237853 
vt -0.429463 -0.234151 
vt -0.41377 -0.271314 
vt -0.600849 -0.271314 
vt -0.41377 -0.235617 
vt -0.600849 -0.235617 
vt -0.590462 -0.272515 
vt -0.614958 -0.269343 
vt -0.61658 -0.272515 
vt -0.590131 -0.269343 
vt -0.424157 -0.272515 
vt -0.398039 -0.272515 
vt -0.399661 -0.269343 
vt -0.424489 -0.269343 
vt -0.597181 -0.234151 
vt -0.623656 -0.237853 
vt -0.596822 -0.237853 
vt -0.625409 -0.234151 
vt -0.38921 -0.234151 
vt -0.417438 -0.234151 
vt -0.390963 -0.237853 
vt -0.417797 -0.237853 
vt -0.362899 -0.273918 
vt -0.65172 -0.273918 
vt -0.362899 -0.273918 
vt -0.362899 -0.233013 
vt -0.65172 -0.273918 
vt -0.65172 -0.233013 
vt -0.379791 -0.201442 
vt -0.634828 -0.201442 
vt -0.379791 -0.201442 
vt -0.634828 -0.201442 
vt -0.634828 -0.305489 
vt -0.379791 -0.305489 
vt -0.634828 -0.305489 
vt -0.379791 -0.305489 
vt -0.369296 -0.272326 
vt -0.645323 -0.272326 
vt -0.369296 -0.272326 
vt -0.645323 -0.272326 
vt -0.65172 -0.233013 
vt -0.630021 -0.206005 
vt -0.634828 -0.201442 
vt -0.645323 -0.234605 
vt -0.362899 -0.233013 
vt -0.384598 -0.206005 
vt -0.369296 -0.234605 
vt -0.379791 -0.201442 
vt -0.379791 -0.305489 
vt -0.362899 -0.273918 
vt -0.384598 -0.300926 
vt -0.369296 -0.272326 
vt -0.65172 -0.273918 
vt -0.630021 -0.300926 
vt -0.645323 -0.272326 
vt -0.634828 -0.305489 
vt -0.413007 -0.181732 
vt -0.601612 -0.181732 
vt -0.601612 -0.325199 
vt -0.413007 -0.325199 
vt -0.61447 -0.258816 
vt -0.400149 -0.258816 
vt -0.601612 -0.181732 
vt -0.630021 -0.206005 
vt -0.599351 -0.187806 
vt -0.634828 -0.201442 
vt -0.415268 -0.187806 
vt -0.384598 -0.206005 
vt -0.413007 -0.181732 
vt -0.379791 -0.201442 
vt -0.599351 -0.319125 
vt -0.384598 -0.300926 
vt -0.413007 -0.325199 
vt -0.379791 -0.305489 
vt -0.415268 -0.319125 
vt -0.634828 -0.305489 
vt -0.601612 -0.325199 
vt -0.630021 -0.300926 
vt -0.599351 -0.319125 
vt -0.586242 -0.179061 
vt -0.428377 -0.179061 
vt -0.428931 -0.3215 
vt -0.605978 -0.250358 
vt -0.610224 -0.248607 
vt -0.61447 -0.250358 
vt -0.604219 -0.254587 
vt -0.616229 -0.254587 
vt -0.610224 -0.260567 
vt -0.605978 -0.258816 
vt -0.61447 -0.258816 
vt -0.39839 -0.254587 
vt -0.4104 -0.254587 
vt -0.404395 -0.260567 
vt -0.400149 -0.258816 
vt -0.408641 -0.258816 
vt -0.400149 -0.250358 
vt -0.408641 -0.250358 
vt -0.404395 -0.248607 
vt -0.585688 -0.185431 
vt -0.597181 -0.193634 
vt -0.585156 -0.191544 
vt -0.599351 -0.187806 
vt -0.428931 -0.185431 
vt -0.429463 -0.191544 
vt -0.417438 -0.193634 
vt -0.428931 -0.185431 
vt -0.415268 -0.187806 
vt -0.639185 -0.2708 
vt -0.645323 -0.234605 
vt -0.645323 -0.272326 
vt -0.639185 -0.236131 
vt -0.369296 -0.272326 
vt -0.369296 -0.234605 
vt -0.375434 -0.2708 
vt -0.375434 -0.236131 
vt -0.585688 -0.3215 
vt -0.597181 -0.313297 
vt -0.599351 -0.319125 
vt -0.585156 -0.315387 
vt -0.585688 -0.3215 
vt -0.429463 -0.315387 
vt -0.428931 -0.3215 
vt -0.417438 -0.313297 
vt -0.415268 -0.319125 
vt -0.38921 -0.296547 
vt -0.415268 -0.319125 
vt -0.384598 -0.300926 
vt -0.417438 -0.313297 
vt -0.384598 -0.300926 
vt -0.369296 -0.272326 
vt -0.38921 -0.296547 
vt -0.375434 -0.2708 
vt -0.599351 -0.187806 
vt -0.625409 -0.210384 
vt -0.597181 -0.193634 
vt -0.630021 -0.206005 
vt -0.645323 -0.234605 
vt -0.625409 -0.210384 
vt -0.630021 -0.206005 
vt -0.639185 -0.236131 
vt -0.369296 -0.234605 
vt -0.38921 -0.210384 
vt -0.375434 -0.236131 
vt -0.384598 -0.206005 
vt -0.645323 -0.272326 
vt -0.625409 -0.296547 
vt -0.639185 -0.2708 
vt -0.630021 -0.300926 
vt -0.630021 -0.300926 
vt -0.599351 -0.319125 
vt -0.625409 -0.296547 
vt -0.597181 -0.313297 
vt -0.417438 -0.193634 
vt -0.38921 -0.210384 
vt -0.415268 -0.187806 
vt -0.384598 -0.206005 
vt -0.636508 -0.269923 
vt -0.585827 -0.195153 
vt -0.636508 -0.237008 
vt -0.596822 -0.197064 
vt -0.623656 -0.212986 
vt -0.585827 -0.311778 
vt -0.596822 -0.309867 
vt -0.623656 -0.293945 
vt -0.428792 -0.195153 
vt -0.378112 -0.237008 
vt -0.417797 -0.197064 
vt -0.390964 -0.212986 
vt -0.378112 -0.269923 
vt -0.428792 -0.311778 
vt -0.417797 -0.309867 
vt -0.390964 -0.293945 
vt -0.428792 -0.311778 
vt -0.585827 -0.195153 
vt -0.585827 -0.311778 
vt -0.428792 -0.195153 
vt -0.523115 -0.233013 
vt -0.523115 -0.273918 
vt -0.50731 -0.273918 
vt -0.50731 -0.233013 
vt -0.491504 -0.273918 
vt -0.50731 -0.233013 
vt -0.50731 -0.273918 
vt -0.491504 -0.233013 
vt -0.50731 -0.201442 
vt -0.523115 -0.201442 
vt -0.50731 -0.233013 
vt -0.50731 -0.201442 
vt -0.523115 -0.233013 
vt -0.50731 -0.233013 
vt -0.491504 -0.233013 
vt -0.50731 -0.201442 
vt -0.491504 -0.201442 
vt -0.523115 -0.273918 
vt -0.50731 -0.305489 
vt -0.50731 -0.273918 
vt -0.523115 -0.305489 
vt -0.50731 -0.305489 
vt -0.50731 -0.273918 
vt -0.50731 -0.305489 
vt -0.491504 -0.305489 
vt -0.491504 -0.273918 
vt -0.523115 -0.233013 
vt -0.526623 -0.272326 
vt -0.523115 -0.273918 
vt -0.526624 -0.234605 
vt -0.487996 -0.234605 
vt -0.491504 -0.273918 
vt -0.487996 -0.272326 
vt -0.491504 -0.233013 
vt -0.523115 -0.181732 
vt -0.527834 -0.258816 
vt -0.525158 -0.254587 
vt -0.527834 -0.254587 
vt -0.525158 -0.261189 
vt -0.486785 -0.258816 
vt -0.489461 -0.254587 
vt -0.489461 -0.261189 
vt -0.486785 -0.254587 
vt -0.527834 -0.250358 
vt -0.527834 -0.254587 
vt -0.525158 -0.254587 
vt -0.525158 -0.247985 
vt -0.527834 -0.250358 
vt -0.489461 -0.247985 
vt -0.489461 -0.254587 
vt -0.486785 -0.250358 
vt -0.486785 -0.254587 
vt -0.486785 -0.250358 
vt -0.525158 -0.261189 
vt -0.50731 -0.254587 
vt -0.525158 -0.254587 
vt -0.50731 -0.261189 
vt -0.50731 -0.261189 
vt -0.489461 -0.261189 
vt -0.50731 -0.254587 
vt -0.489461 -0.254587 
vt -0.525158 -0.254587 
vt -0.50731 -0.247985 
vt -0.525158 -0.247985 
vt -0.50731 -0.254587 
vt -0.50731 -0.247985 
vt -0.50731 -0.254587 
vt -0.489461 -0.254587 
vt -0.50731 -0.247985 
vt -0.489461 -0.247985 
vt -0.525158 -0.263923 
vt -0.525158 -0.263923 
vt -0.489461 -0.263923 
vt -0.489461 -0.263923 
vt -0.50731 -0.263923 
vt -0.50731 -0.263923 
vt -0.487996 -0.296547 
vt -0.487996 -0.210384 
vt -0.487996 -0.210384 
vt -0.487996 -0.296547 
vt -0.527834 -0.258816 
vt -0.525158 -0.254587 
vt -0.527834 -0.254587 
vt -0.525158 -0.261189 
vt -0.489461 -0.261189 
vt -0.486785 -0.258816 
vt -0.489461 -0.254587 
vt -0.486785 -0.254587 
vt -0.525158 -0.254587 
vt -0.527834 -0.250358 
vt -0.527834 -0.254587 
vt -0.525158 -0.247985 
vt -0.489461 -0.254587 
vt -0.486785 -0.250358 
vt -0.489461 -0.247985 
vt -0.486785 -0.254587 
vt -0.525158 -0.261189 
vt -0.50731 -0.261189 
vt -0.525158 -0.254587 
vt -0.50731 -0.254587 
vt -0.489461 -0.254587 
vt -0.50731 -0.254587 
vt -0.50731 -0.261189 
vt -0.489461 -0.261189 
vt -0.525158 -0.254587 
vt -0.50731 -0.254587 
vt -0.525158 -0.247985 
vt -0.50731 -0.247985 
vt -0.489461 -0.247985 
vt -0.50731 -0.247985 
vt -0.50731 -0.254587 
vt -0.489461 -0.254587 
vt -0.526359 -0.269041 
vt -0.526359 -0.292176 
vt -0.523187 -0.289837 
vt -0.523187 -0.268253 
vt -0.526359 -0.23789 
vt -0.523187 -0.217094 
vt -0.526359 -0.214756 
vt -0.523187 -0.238678 
vt -0.526359 -0.269041 
vt -0.523187 -0.238678 
vt -0.526359 -0.23789 
vt -0.523187 -0.268253 
vt -0.487996 -0.296547 
vt -0.487996 -0.2708 
vt -0.491697 -0.293945 
vt -0.491697 -0.269923 
vt -0.487996 -0.236131 
vt -0.491697 -0.212986 
vt -0.491697 -0.237008 
vt -0.487996 -0.210384 
vt -0.487996 -0.2708 
vt -0.487996 -0.236131 
vt -0.491697 -0.269923 
vt -0.491697 -0.237008 
vt -0.379791 -0.253466 
vt -0.634828 -0.253466 
vt -0.634828 -0.253466 
vt -0.634828 -0.269271 
vt -0.379791 -0.253466 
vt -0.379791 -0.269271 
vt -0.634828 -0.23766 
vt -0.379791 -0.23766 
vt -0.634828 -0.269271 
vt -0.601612 -0.253466 
vt -0.634828 -0.253466 
vt -0.601612 -0.269271 
vt -0.379791 -0.269271 
vt -0.413007 -0.253466 
vt -0.413007 -0.269271 
vt -0.379791 -0.253466 
vt -0.634828 -0.253466 
vt -0.601612 -0.253466 
vt -0.601612 -0.23766 
vt -0.634828 -0.23766 
vt -0.379791 -0.253466 
vt -0.413007 -0.23766 
vt -0.413007 -0.253466 
vt -0.379791 -0.23766 
vt -0.61447 -0.27399 
vt -0.400149 -0.27399 
vt -0.61447 -0.232941 
vt -0.400149 -0.232941 
vt -0.616853 -0.253466 
vt -0.397766 -0.253466 
vt -0.599351 -0.272779 
vt -0.413007 -0.269271 
vt -0.428377 -0.253466 
vt -0.428377 -0.269271 
vt -0.413007 -0.253466 
vt -0.586242 -0.269271 
vt -0.601612 -0.253466 
vt -0.601612 -0.269271 
vt -0.586242 -0.253466 
vt -0.428377 -0.253466 
vt -0.413007 -0.23766 
vt -0.428377 -0.23766 
vt -0.413007 -0.253466 
vt -0.601612 -0.253466 
vt -0.586242 -0.23766 
vt -0.601612 -0.23766 
vt -0.586242 -0.253466 
vt -0.415268 -0.272779 
vt -0.428377 -0.269271 
vt -0.428931 -0.272779 
vt -0.413007 -0.269271 
vt -0.599351 -0.272779 
vt -0.585688 -0.272779 
vt -0.586242 -0.269271 
vt -0.601612 -0.269271 
vt -0.428377 -0.23766 
vt -0.415268 -0.234151 
vt -0.428931 -0.234151 
vt -0.413007 -0.23766 
vt -0.601612 -0.23766 
vt -0.586242 -0.23766 
vt -0.599351 -0.234151 
vt -0.585688 -0.234151 
vt -0.428377 -0.269271 
vt -0.586242 -0.253466 
vt -0.586242 -0.269271 
vt -0.428377 -0.253466 
vt -0.428377 -0.23766 
vt -0.586242 -0.253466 
vt -0.428377 -0.253466 
vt -0.586242 -0.23766 
vt -0.428931 -0.272779 
vt -0.586242 -0.269271 
vt -0.585688 -0.272779 
vt -0.428377 -0.269271 
vt -0.428931 -0.234151 
vt -0.586242 -0.23766 
vt -0.428377 -0.23766 
vt -0.585688 -0.234151 
vt -0.61447 -0.27399 
vt -0.610224 -0.27399 
vt -0.610224 -0.271314 
vt -0.616853 -0.271314 
vt -0.400149 -0.27399 
vt -0.404395 -0.271314 
vt -0.404395 -0.27399 
vt -0.397766 -0.271314 
vt -0.616853 -0.235617 
vt -0.610224 -0.235617 
vt -0.61447 -0.232941 
vt -0.610224 -0.232941 
vt -0.397766 -0.235617 
vt -0.400149 -0.232941 
vt -0.404395 -0.235617 
vt -0.404395 -0.232941 
vt -0.610224 -0.271314 
vt -0.616853 -0.253466 
vt -0.616853 -0.271314 
vt -0.610224 -0.253466 
vt -0.397766 -0.271314 
vt -0.397766 -0.253466 
vt -0.404395 -0.271314 
vt -0.404395 -0.253466 
vt -0.610224 -0.253466 
vt -0.610224 -0.235617 
vt -0.616853 -0.253466 
vt -0.616853 -0.235617 
vt -0.404395 -0.235617 
vt -0.404395 -0.253466 
vt -0.397766 -0.253466 
vt -0.397766 -0.235617 
vt -0.38921 -0.234151 
vt -0.625409 -0.234151 
vt -0.38921 -0.234151 
vt -0.625409 -0.234151 
vt -0.435282 -0.272515 
vt -0.579337 -0.272515 
vt -0.605978 -0.27399 
vt -0.610224 -0.271314 
vt -0.610224 -0.27399 
vt -0.603595 -0.271314 
vt -0.404395 -0.271314 
vt -0.408641 -0.27399 
vt -0.404395 -0.27399 
vt -0.411024 -0.271314 
vt -0.605978 -0.232941 
vt -0.610224 -0.235617 
vt -0.603595 -0.235617 
vt -0.610224 -0.232941 
vt -0.404395 -0.235617 
vt -0.408641 -0.232941 
vt -0.411024 -0.235617 
vt -0.404395 -0.232941 
vt -0.603595 -0.271314 
vt -0.610224 -0.253466 
vt -0.610224 -0.271314 
vt -0.603595 -0.253466 
vt -0.404395 -0.271314 
vt -0.404395 -0.253466 
vt -0.411024 -0.271314 
vt -0.411024 -0.253466 
vt -0.603595 -0.253466 
vt -0.603595 -0.235617 
vt -0.610224 -0.253466 
vt -0.610224 -0.235617 
vt -0.411024 -0.235617 
vt -0.411024 -0.253466 
vt -0.404395 -0.253466 
vt -0.404395 -0.235617 
vt -0.435282 -0.272515 
vt -0.579957 -0.269343 
vt -0.579337 -0.272515 
vt -0.434662 -0.269343 
vt -0.429463 -0.234151 
vt -0.585156 -0.234151 
vt -0.428792 -0.237853 
vt -0.585827 -0.237853 
vt -0.424157 -0.272515 
vt -0.434662 -0.269343 
vt -0.435282 -0.272515 
vt -0.424489 -0.269343 
vt -0.590462 -0.272515 
vt -0.579337 -0.272515 
vt -0.579957 -0.269343 
vt -0.590131 -0.269343 
vt -0.417438 -0.234151 
vt -0.428792 -0.237853 
vt -0.417797 -0.237853 
vt -0.429463 -0.234151 
vt -0.585156 -0.234151 
vt -0.597181 -0.234151 
vt -0.585827 -0.237853 
vt -0.596822 -0.237853 
vt -0.600849 -0.271314 
vt -0.41377 -0.271314 
vt -0.600849 -0.235617 
vt -0.41377 -0.235617 
vt -0.590462 -0.272515 
vt -0.614958 -0.269343 
vt -0.61658 -0.272515 
vt -0.590131 -0.269343 
vt -0.424157 -0.272515 
vt -0.398039 -0.272515 
vt -0.399661 -0.269343 
vt -0.424489 -0.269343 
vt -0.597181 -0.234151 
vt -0.623656 -0.237853 
vt -0.596822 -0.237853 
vt -0.625409 -0.234151 
vt -0.38921 -0.234151 
vt -0.417438 -0.234151 
vt -0.390964 -0.237853 
vt -0.417797 -0.237853 
vt -0.65172 -0.233013 
vt -0.65172 -0.273918 
vt -0.65172 -0.273918 
vt -0.362899 -0.233013 
vt -0.362899 -0.273918 
vt -0.362899 -0.273918 
vt -0.634828 -0.201442 
vt -0.634828 -0.201442 
vt -0.379791 -0.201442 
vt -0.379791 -0.201442 
vt -0.379791 -0.305489 
vt -0.379791 -0.305489 
vt -0.634828 -0.305489 
vt -0.634828 -0.305489 
vt -0.645323 -0.272326 
vt -0.645323 -0.234605 
vt -0.369296 -0.272326 
vt -0.369296 -0.234605 
vt -0.384598 -0.206005 
vt -0.369296 -0.234605 
vt -0.362899 -0.233013 
vt -0.379791 -0.201442 
vt -0.630021 -0.206005 
vt -0.65172 -0.233013 
vt -0.645323 -0.234605 
vt -0.634828 -0.201442 
vt -0.65172 -0.273918 
vt -0.634828 -0.305489 
vt -0.630021 -0.300926 
vt -0.645323 -0.272326 
vt -0.362899 -0.273918 
vt -0.384598 -0.300926 
vt -0.379791 -0.305489 
vt -0.369296 -0.272326 
vt -0.601612 -0.181732 
vt -0.413007 -0.181732 
vt -0.413007 -0.325199 
vt -0.601612 -0.325199 
vt -0.400149 -0.258816 
vt -0.61447 -0.258816 
vt -0.384598 -0.206005 
vt -0.413007 -0.181732 
vt -0.415268 -0.187806 
vt -0.379791 -0.201442 
vt -0.601612 -0.181732 
vt -0.634828 -0.201442 
vt -0.630021 -0.206005 
vt -0.599351 -0.187806 
vt -0.601612 -0.325199 
vt -0.630021 -0.300926 
vt -0.634828 -0.305489 
vt -0.599351 -0.319125 
vt -0.413007 -0.325199 
vt -0.384598 -0.300926 
vt -0.415268 -0.319125 
vt -0.379791 -0.305489 
vt -0.428377 -0.179061 
vt -0.586242 -0.179061 
vt -0.585688 -0.3215 
vt -0.4104 -0.254587 
vt -0.400149 -0.250358 
vt -0.408641 -0.250358 
vt -0.404395 -0.248607 
vt -0.39839 -0.254587 
vt -0.404395 -0.260567 
vt -0.408641 -0.258816 
vt -0.400149 -0.258816 
vt -0.604219 -0.254587 
vt -0.610224 -0.260567 
vt -0.605978 -0.258816 
vt -0.616229 -0.254587 
vt -0.61447 -0.258816 
vt -0.61447 -0.250358 
vt -0.605978 -0.250358 
vt -0.610224 -0.248607 
vt -0.428931 -0.185431 
vt -0.585688 -0.185431 
vt -0.579337 -0.197828 
vt -0.435282 -0.197828 
vt -0.435282 -0.309103 
vt -0.579337 -0.309103 
vt -0.585688 -0.3215 
vt -0.428931 -0.3215 
vt -0.428931 -0.185431 
vt -0.424157 -0.199706 
vt -0.415268 -0.187806 
vt -0.435282 -0.197828 
vt -0.599351 -0.187806 
vt -0.590462 -0.199706 
vt -0.585688 -0.185431 
vt -0.579337 -0.197828 
vt -0.428931 -0.3215 
vt -0.424157 -0.307225 
vt -0.435282 -0.309103 
vt -0.415268 -0.319125 
vt -0.590462 -0.307225 
vt -0.585688 -0.3215 
vt -0.579337 -0.309103 
vt -0.599351 -0.319125 
vt -0.599351 -0.319125 
vt -0.61658 -0.292176 
vt -0.630021 -0.300926 
vt -0.590462 -0.307225 
vt -0.398039 -0.214756 
vt -0.415268 -0.187806 
vt -0.424157 -0.199706 
vt -0.384598 -0.206005 
vt -0.415268 -0.319125 
vt -0.398039 -0.292176 
vt -0.424157 -0.307225 
vt -0.384598 -0.300926 
vt -0.599351 -0.187806 
vt -0.630021 -0.206005 
vt -0.61658 -0.214756 
vt -0.590462 -0.199706 
vt -0.630021 -0.300926 
vt -0.629326 -0.269041 
vt -0.645323 -0.272326 
vt -0.61658 -0.292176 
vt -0.385293 -0.23789 
vt -0.384598 -0.206005 
vt -0.398039 -0.214756 
vt -0.369296 -0.234605 
vt -0.630021 -0.206005 
vt -0.629326 -0.23789 
vt -0.61658 -0.214756 
vt -0.645323 -0.234605 
vt -0.384598 -0.300926 
vt -0.369296 -0.272326 
vt -0.385293 -0.269041 
vt -0.398039 -0.292176 
vt -0.369296 -0.272326 
vt -0.369296 -0.234605 
vt -0.385293 -0.23789 
vt -0.385293 -0.269041 
vt -0.629326 -0.23789 
vt -0.645323 -0.272326 
vt -0.629326 -0.269041 
vt -0.645323 -0.234605 
vt -0.424489 -0.202788 
vt -0.38777 -0.238678 
vt -0.399661 -0.217094 
vt -0.434662 -0.201071 
vt -0.38777 -0.268253 
vt -0.434662 -0.305861 
vt -0.424489 -0.304143 
vt -0.399661 -0.289837 
vt -0.626849 -0.238678 
vt -0.579957 -0.305861 
vt -0.579957 -0.201071 
vt -0.590131 -0.202788 
vt -0.614958 -0.217094 
vt -0.626849 -0.268253 
vt -0.590131 -0.304143 
vt -0.614958 -0.289837 
vt -0.434662 -0.201071 
vt -0.579957 -0.305861 
vt -0.434662 -0.305861 
vt -0.579957 -0.201071 

usemtl Sign1Mtl

f 1/1/1 2/2/2 3/3/3 
f 2/2/2 1/1/1 4/4/4 
f 5/5/5 6/6/6 7/7/7 
f 6/6/6 5/5/5 8/8/8 
f 9/9/9 10/10/10 11/11/11 
f 10/10/10 12/12/12 11/11/11 
f 14/14/14 15/15/15 16/16/16 
f 15/15/15 14/14/14 17/17/17 
f 19/19/19 20/20/20 21/21/21 
f 20/20/20 19/19/19 22/22/22 
f 23/23/23 24/24/24 25/25/25 
f 24/24/24 23/23/23 26/26/26 
f 27/27/27 28/28/28 29/29/29 
f 28/28/28 27/27/27 30/30/30 
f 31/31/31 32/32/32 33/33/33 
f 32/32/32 31/31/31 34/34/34 
f 36/36/36 37/37/37 38/38/38 
f 37/37/37 36/36/36 39/39/39 
f 40/40/40 41/41/41 42/42/42 
f 41/41/41 40/40/40 43/43/43 
f 45/45/45 46/46/46 47/47/47 
f 46/46/46 45/45/45 48/48/48 
f 50/50/50 51/51/51 52/52/52 
f 52/52/52 51/51/51 53/53/53 
f 54/54/54 55/55/55 56/56/56 
f 56/56/56 55/55/55 57/57/57 
f 58/58/58 59/59/59 60/60/60 
f 60/60/60 61/61/61 58/58/58 
f 63/63/63 64/64/64 65/65/65 
f 65/65/65 64/64/64 66/66/66 
f 67/67/67 68/68/68 69/69/69 
f 69/69/69 70/70/70 67/67/67 
f 81/81/81 82/82/82 83/83/83 
f 83/83/83 84/84/84 81/81/81 
f 85/85/85 86/86/86 87/87/87 
f 86/86/86 88/88/88 87/87/87 
f 89/89/89 90/90/90 91/91/91 
f 90/90/90 89/89/89 92/92/92 
f 93/93/93 94/94/94 95/95/95 
f 94/94/94 93/93/93 96/96/96 
f 97/97/97 98/98/98 99/99/99 
f 98/98/98 97/97/97 100/100/100 
f 101/101/101 102/102/102 103/103/103 
f 103/103/103 102/102/102 104/104/104 
f 105/105/105 106/106/106 107/107/107 
f 106/106/106 105/105/105 108/108/108 
f 109/109/109 110/110/110 111/111/111 
f 111/111/111 110/110/110 112/112/112 
f 113/113/113 114/114/114 115/115/115 
f 114/114/114 113/113/113 116/116/116 
f 117/117/117 118/118/118 119/119/119 
f 117/117/117 119/119/119 120/120/120 
f 121/121/121 122/122/122 123/123/123 
f 121/121/121 123/123/123 124/124/124 
f 125/125/125 126/126/126 127/127/127 
f 126/126/126 125/125/125 128/128/128 
f 129/129/129 130/130/130 131/131/131 
f 132/132/132 131/131/131 130/130/130 
f 133/133/133 134/134/134 135/135/135 
f 136/136/136 135/135/135 134/134/134 
f 145/145/145 146/146/146 147/147/147 
f 146/146/146 148/148/148 147/147/147 
f 149/149/149 150/150/150 151/151/151 
f 150/150/150 149/149/149 152/152/152 
f 153/153/153 154/154/154 155/155/155 
f 154/154/154 153/153/153 156/156/156 
f 157/157/157 158/158/158 159/159/159 
f 159/159/159 158/158/158 160/160/160 
f 167/167/167 168/168/168 169/169/169 
f 168/168/168 167/167/167 170/170/170 
f 171/171/171 172/172/172 173/173/173 
f 172/172/172 171/171/171 174/174/174 
f 175/175/175 176/176/176 177/177/177 
f 176/176/176 175/175/175 178/178/178 
f 179/179/179 180/180/180 181/181/181 
f 180/180/180 179/179/179 182/182/182 
f 183/183/183 184/184/184 185/185/185 
f 184/184/184 183/183/183 186/186/186 
f 187/187/187 188/188/188 189/189/189 
f 188/188/188 187/187/187 190/190/190 
f 191/191/191 192/192/192 193/193/193 
f 192/192/192 191/191/191 194/194/194 
f 195/195/195 196/196/196 197/197/197 
f 196/196/196 195/195/195 198/198/198 
f 199/199/199 200/200/200 201/201/201 
f 200/200/200 199/199/199 202/202/202 
f 203/203/203 204/204/204 205/205/205 
f 204/204/204 203/203/203 206/206/206 
f 207/207/207 208/208/208 209/209/209 
f 208/208/208 207/207/207 210/210/210 
f 211/211/211 212/212/212 213/213/213 
f 212/212/212 211/211/211 214/214/214 
f 215/215/215 216/216/216 217/217/217 
f 216/216/216 215/215/215 218/218/218 
f 219/219/219 220/220/220 221/221/221 
f 220/220/220 219/219/219 222/222/222 
f 223/223/223 224/224/224 225/225/225 
f 224/224/224 223/223/223 226/226/226 
f 227/227/227 228/228/228 229/229/229 
f 228/228/228 227/227/227 230/230/230 
f 231/231/231 232/232/232 233/233/233 
f 232/232/232 231/231/231 234/234/234 
f 235/235/235 236/236/236 237/237/237 
f 237/237/237 236/236/236 238/238/238 
f 239/239/239 240/240/240 241/241/241 
f 240/240/240 239/239/239 242/242/242 
f 243/243/243 244/244/244 245/245/245 
f 245/245/245 246/246/246 243/243/243 
f 253/253/253 254/254/254 255/255/255 
f 255/255/255 256/256/256 253/253/253 
f 257/257/257 258/258/258 259/259/259 
f 258/258/258 257/257/257 260/260/260 
f 261/261/261 262/262/262 263/263/263 
f 262/262/262 264/264/264 263/263/263 
f 265/265/265 266/266/266 267/267/267 
f 267/267/267 266/266/266 268/268/268 
f 269/269/269 270/270/270 271/271/271 
f 270/270/270 269/269/269 272/272/272 
f 273/273/273 274/274/274 275/275/275 
f 275/275/275 274/274/274 276/276/276 
f 277/277/277 278/278/278 279/279/279 
f 278/278/278 277/277/277 280/280/280 
f 281/281/281 282/282/282 283/283/283 
f 283/283/283 284/284/284 281/281/281 
f 285/285/285 286/286/286 287/287/287 
f 286/286/286 285/285/285 288/288/288 
f 289/289/289 290/290/290 291/291/291 
f 292/292/292 291/291/291 290/290/290 
f 293/293/293 294/294/294 295/295/295 
f 293/293/293 295/295/295 296/296/296 
f 297/297/297 298/298/298 299/299/299 
f 298/298/298 297/297/297 300/300/300 
f 301/301/301 302/302/302 303/303/303 
f 304/304/304 303/303/303 302/302/302 
f 305/305/305 306/306/306 307/307/307 
f 306/306/306 305/305/305 308/308/308 
f 313/313/313 314/314/314 315/315/315 
f 314/314/314 313/313/313 316/316/316 
f 317/317/317 318/318/318 319/319/319 
f 317/317/317 319/319/319 320/320/320 
f 321/321/321 322/322/322 323/323/323 
f 322/322/322 321/321/321 324/324/324 
f 325/325/325 326/326/326 327/327/327 
f 328/328/328 327/327/327 326/326/326 
f 347/347/347 348/348/348 349/349/349 
f 348/348/348 347/347/347 350/350/350 
f 351/351/351 352/352/352 353/353/353 
f 352/352/352 351/351/351 354/354/354 
f 355/355/355 356/356/356 357/357/357 
f 357/357/357 356/356/356 358/358/358 
f 359/359/359 360/360/360 361/361/361 
f 360/360/360 359/359/359 362/362/362 
f 369/369/369 370/370/370 371/371/371 
f 370/370/370 369/369/369 372/372/372 
f 373/373/373 374/374/374 375/375/375 
f 375/375/375 374/374/374 376/376/376 
f 378/378/378 379/379/379 380/380/380 
f 379/379/379 378/378/378 381/381/381 
f 382/382/382 383/383/383 384/384/384 
f 384/384/384 383/383/383 385/385/385 
f 389/389/389 390/390/390 391/391/391 
f 391/391/391 392/392/392 389/389/389 
f 393/393/393 392/392/392 391/391/391 
f 393/393/393 394/394/394 392/392/392 
f 392/392/392 394/394/394 395/395/395 
f 394/394/394 393/393/393 396/396/396 
f 397/397/397 398/398/398 399/399/399 
f 397/397/397 399/399/399 400/400/400 
f 399/399/399 398/398/398 401/401/401 
f 398/398/398 397/397/397 402/402/402 
f 398/398/398 402/402/402 403/403/403 
f 403/403/403 402/402/402 404/404/404 
f 405/405/405 406/406/406 407/407/407 
f 406/406/406 405/405/405 408/408/408 
f 407/407/407 409/409/409 405/405/405 
f 409/409/409 407/407/407 410/410/410 
f 410/410/410 411/411/411 412/412/412 
f 411/411/411 413/413/413 412/412/412 
f 414/414/414 415/415/415 416/416/416 
f 415/415/415 414/414/414 417/417/417 
f 418/418/418 419/419/419 420/420/420 
f 420/420/420 419/419/419 421/421/421 
f 422/422/422 423/423/423 424/424/424 
f 423/423/423 422/422/422 425/425/425 
f 426/426/426 427/427/427 425/425/425 
f 427/427/427 426/426/426 428/428/428 
f 428/428/428 429/429/429 427/427/427 
f 429/429/429 428/428/428 430/430/430 
f 431/431/431 432/432/432 433/433/433 
f 432/432/432 431/431/431 434/434/434 
f 435/435/435 436/436/436 437/437/437 
f 437/437/437 436/436/436 438/438/438 
f 439/439/439 440/440/440 441/441/441 
f 440/440/440 439/439/439 442/442/442 
f 443/443/443 444/444/444 445/445/445 
f 444/444/444 443/443/443 446/446/446 
f 447/447/447 448/448/448 449/449/449 
f 448/448/448 447/447/447 450/450/450 
f 451/451/451 452/452/452 453/453/453 
f 452/452/452 451/451/451 454/454/454 
f 455/455/455 456/456/456 457/457/457 
f 457/457/457 456/456/456 458/458/458 
f 459/459/459 460/460/460 461/461/461 
f 461/461/461 460/460/460 462/462/462 
f 463/463/463 464/464/464 465/465/465 
f 465/465/465 464/464/464 466/466/466 
f 465/465/465 466/466/466 467/467/467 
f 464/464/464 463/463/463 468/468/468 
f 468/468/468 463/463/463 469/469/469 
f 469/469/469 463/463/463 470/470/470 
f 471/471/471 472/472/472 473/473/473 
f 473/473/473 472/472/472 474/474/474 
f 471/471/471 475/475/475 472/472/472 
f 475/475/475 471/471/471 476/476/476 
f 477/477/477 475/475/475 476/476/476 
f 475/475/475 477/477/477 478/478/478 
f 479/479/479 480/480/480 481/481/481 
f 480/480/480 479/479/479 482/482/482 
f 483/483/483 484/484/484 485/485/485 
f 483/483/483 485/485/485 486/486/486 
f 487/487/487 488/488/488 489/489/489 
f 488/488/488 487/487/487 490/490/490 
f 492/492/492 493/493/493 494/494/494 
f 493/493/493 492/492/492 495/495/495 
f 496/496/496 497/497/497 498/498/498 
f 498/498/498 497/497/497 499/499/499 
f 500/500/500 501/501/501 502/502/502 
f 501/501/501 500/500/500 503/503/503 
f 505/505/505 506/506/506 507/507/507 
f 505/505/505 507/507/507 508/508/508 
f 509/509/509 510/510/510 511/511/511 
f 510/510/510 509/509/509 512/512/512 
f 513/513/513 514/514/514 515/515/515 
f 514/514/514 513/513/513 516/516/516 
f 518/518/518 519/519/519 520/520/520 
f 519/519/519 518/518/518 521/521/521 
f 522/522/522 523/523/523 524/524/524 
f 523/523/523 522/522/522 525/525/525 
f 526/526/526 527/527/527 528/528/528 
f 528/528/528 529/529/529 526/526/526 
f 531/531/531 532/532/532 533/533/533 
f 532/532/532 534/534/534 533/533/533 
f 536/536/536 537/537/537 538/538/538 
f 537/537/537 536/536/536 539/539/539 
f 540/540/540 541/541/541 542/542/542 
f 542/542/542 541/541/541 543/543/543 
f 544/544/544 545/545/545 546/546/546 
f 545/545/545 544/544/544 547/547/547 
f 549/549/549 550/550/550 551/551/551 
f 551/551/551 550/550/550 552/552/552 
f 563/563/563 564/564/564 565/565/565 
f 564/564/564 563/563/563 566/566/566 
f 567/567/567 568/568/568 569/569/569 
f 569/569/569 568/568/568 570/570/570 
f 571/571/571 572/572/572 573/573/573 
f 572/572/572 571/571/571 574/574/574 
f 575/575/575 576/576/576 577/577/577 
f 576/576/576 575/575/575 578/578/578 
f 579/579/579 580/580/580 581/581/581 
f 581/581/581 580/580/580 582/582/582 
f 583/583/583 584/584/584 585/585/585 
f 585/585/585 586/586/586 583/583/583 
f 587/587/587 588/588/588 589/589/589 
f 589/589/589 588/588/588 590/590/590 
f 591/591/591 592/592/592 593/593/593 
f 593/593/593 594/594/594 591/591/591 
f 595/595/595 596/596/596 597/597/597 
f 595/595/595 597/597/597 598/598/598 
f 599/599/599 600/600/600 601/601/601 
f 600/600/600 599/599/599 602/602/602 
f 603/603/603 604/604/604 605/605/605 
f 604/604/604 603/603/603 606/606/606 
f 607/607/607 608/608/608 609/609/609 
f 610/610/610 609/609/609 608/608/608 
f 611/611/611 612/612/612 613/613/613 
f 612/612/612 611/611/611 614/614/614 
f 615/615/615 616/616/616 617/617/617 
f 618/618/618 617/617/617 616/616/616 
f 627/627/627 628/628/628 629/629/629 
f 628/628/628 627/627/627 630/630/630 
f 631/631/631 632/632/632 633/633/633 
f 632/632/632 631/631/631 634/634/634 
f 635/635/635 636/636/636 637/637/637 
f 635/635/635 637/637/637 638/638/638 
f 639/639/639 640/640/640 641/641/641 
f 640/640/640 639/639/639 642/642/642 
f 650/650/650 651/651/651 652/652/652 
f 651/651/651 650/650/650 653/653/653 
f 654/654/654 655/655/655 656/656/656 
f 655/655/655 654/654/654 657/657/657 
f 658/658/658 659/659/659 660/660/660 
f 659/659/659 658/658/658 661/661/661 
f 662/662/662 663/663/663 664/664/664 
f 663/663/663 662/662/662 665/665/665 
f 666/666/666 667/667/667 668/668/668 
f 667/667/667 666/666/666 669/669/669 
f 670/670/670 671/671/671 672/672/672 
f 672/672/672 673/673/673 670/670/670 
f 674/674/674 675/675/675 676/676/676 
f 675/675/675 674/674/674 677/677/677 
f 678/678/678 679/679/679 680/680/680 
f 679/679/679 681/681/681 680/680/680 
f 682/682/682 683/683/683 684/684/684 
f 683/683/683 682/682/682 685/685/685 
f 686/686/686 687/687/687 688/688/688 
f 687/687/687 686/686/686 689/689/689 
f 690/690/690 691/691/691 692/692/692 
f 691/691/691 690/690/690 693/693/693 
f 694/694/694 695/695/695 696/696/696 
f 695/695/695 694/694/694 697/697/697 
f 698/698/698 699/699/699 700/700/700 
f 700/700/700 701/701/701 698/698/698 
f 702/702/702 703/703/703 704/704/704 
f 703/703/703 702/702/702 705/705/705 
f 706/706/706 707/707/707 708/708/708 
f 707/707/707 709/709/709 708/708/708 
f 710/710/710 711/711/711 712/712/712 
f 712/712/712 711/711/711 713/713/713 
f 714/714/714 715/715/715 716/716/716 
f 715/715/715 714/714/714 717/717/717 
f 718/718/718 719/719/719 720/720/720 
f 720/720/720 719/719/719 721/721/721 
f 722/722/722 723/723/723 724/724/724 
f 724/724/724 723/723/723 725/725/725 
f 726/726/726 727/727/727 728/728/728 
f 728/728/728 729/729/729 726/726/726 
f 736/736/736 737/737/737 738/738/738 
f 737/737/737 736/736/736 739/739/739 
f 740/740/740 741/741/741 742/742/742 
f 741/741/741 740/740/740 743/743/743 
f 744/744/744 745/745/745 746/746/746 
f 745/745/745 744/744/744 747/747/747 
f 748/748/748 749/749/749 750/750/750 
f 749/749/749 748/748/748 751/751/751 
f 752/752/752 753/753/753 754/754/754 
f 753/753/753 752/752/752 755/755/755 
f 756/756/756 757/757/757 758/758/758 
f 758/758/758 757/757/757 759/759/759 
f 760/760/760 761/761/761 762/762/762 
f 762/762/762 761/761/761 763/763/763 
f 764/764/764 765/765/765 766/766/766 
f 766/766/766 767/767/767 764/764/764 
f 768/768/768 769/769/769 770/770/770 
f 769/769/769 768/768/768 771/771/771 
f 772/772/772 773/773/773 774/774/774 
f 775/775/775 774/774/774 773/773/773 
f 776/776/776 777/777/777 778/778/778 
f 777/777/777 776/776/776 779/779/779 
f 780/780/780 781/781/781 782/782/782 
f 780/780/780 782/782/782 783/783/783 
f 784/784/784 785/785/785 786/786/786 
f 785/785/785 784/784/784 787/787/787 
f 788/788/788 789/789/789 790/790/790 
f 791/791/791 790/790/790 789/789/789 
f 796/796/796 797/797/797 798/798/798 
f 797/797/797 796/796/796 799/799/799 
f 800/800/800 801/801/801 802/802/802 
f 800/800/800 802/802/802 803/803/803 
f 804/804/804 805/805/805 806/806/806 
f 805/805/805 804/804/804 807/807/807 
f 808/808/808 809/809/809 810/810/810 
f 811/811/811 810/810/810 809/809/809 
f 830/830/830 831/831/831 832/832/832 
f 830/830/830 832/832/832 833/833/833 
f 834/834/834 835/835/835 836/836/836 
f 835/835/835 834/834/834 837/837/837 
f 838/838/838 839/839/839 840/840/840 
f 838/838/838 840/840/840 841/841/841 
f 842/842/842 843/843/843 844/844/844 
f 843/843/843 842/842/842 845/845/845 
f 852/852/852 853/853/853 854/854/854 
f 853/853/853 852/852/852 855/855/855 
f 856/856/856 857/857/857 858/858/858 
f 858/858/858 859/859/859 856/856/856 
f 860/860/860 861/861/861 862/862/862 
f 861/861/861 860/860/860 863/863/863 
f 864/864/864 865/865/865 866/866/866 
f 865/865/865 864/864/864 867/867/867 
f 871/871/871 872/872/872 873/873/873 
f 873/873/873 872/872/872 874/874/874 
f 871/871/871 875/875/875 872/872/872 
f 875/875/875 871/871/871 876/876/876 
f 876/876/876 871/871/871 877/877/877 
f 875/875/875 876/876/876 878/878/878 
f 879/879/879 880/880/880 881/881/881 
f 882/882/882 880/880/880 879/879/879 
f 880/880/880 882/882/882 883/883/883 
f 879/879/879 884/884/884 882/882/882 
f 884/884/884 879/879/879 885/885/885 
f 884/884/884 885/885/885 886/886/886 
f 887/887/887 888/888/888 889/889/889 
f 887/887/887 889/889/889 890/890/890 
f 891/891/891 892/892/892 893/893/893 
f 891/891/891 893/893/893 894/894/894 
f 895/895/895 896/896/896 897/897/897 
f 896/896/896 895/895/895 898/898/898 
f 899/899/899 900/900/900 901/901/901 
f 900/900/900 902/902/902 901/901/901 
f 903/903/903 904/904/904 905/905/905 
f 904/904/904 903/903/903 906/906/906 
f 907/907/907 908/908/908 909/909/909 
f 908/908/908 907/907/907 910/910/910 
f 911/911/911 912/912/912 913/913/913 
f 912/912/912 911/911/911 914/914/914 
f 915/915/915 916/916/916 917/917/917 
f 916/916/916 915/915/915 918/918/918 
f 919/919/919 920/920/920 921/921/921 
f 919/919/919 922/922/922 920/920/920 
f 923/923/923 924/924/924 925/925/925 
f 925/925/925 926/926/926 923/923/923 
f 927/927/927 928/928/928 929/929/929 
f 928/928/928 927/927/927 930/930/930 
f 931/931/931 932/932/932 933/933/933 
f 932/932/932 931/931/931 934/934/934 
f 935/935/935 936/936/936 937/937/937 
f 936/936/936 935/935/935 938/938/938 
f 939/939/939 940/940/940 941/941/941 
f 939/939/939 941/941/941 942/942/942 
f 943/943/943 944/944/944 945/945/945 
f 945/945/945 946/946/946 943/943/943 
f 947/947/947 948/948/948 949/949/949 
f 948/948/948 947/947/947 950/950/950 
f 951/951/951 952/952/952 953/953/953 
f 954/954/954 952/952/952 951/951/951 
f 952/952/952 954/954/954 955/955/955 
f 956/956/956 955/955/955 954/954/954 
f 955/955/955 956/956/956 957/957/957 
f 955/955/955 957/957/957 958/958/958 
f 959/959/959 960/960/960 961/961/961 
f 959/959/959 961/961/961 962/962/962 
f 959/959/959 962/962/962 963/963/963 
f 960/960/960 959/959/959 964/964/964 
f 964/964/964 965/965/965 960/960/960 
f 965/965/965 964/964/964 966/966/966 
f 967/967/967 968/968/968 969/969/969 
f 968/968/968 967/967/967 970/970/970 

